<svg version="1.1" id="Layer_1" xmlns="http://www.w3.org/2000/svg" xmlns:xlink="http://www.w3.org/1999/xlink" x="0px" y="0px"
	 width="100%" viewBox="0 0 970 601" enable-background="new 0 0 970 601" xml:space="preserve">
<path fill="#4D3095" opacity="1.000000" stroke="none" 
	d="
M33.000000,1.000000 
	C68.020897,1.000000 103.041786,1.000000 138.532043,1.437943 
	C139.331482,5.013132 139.704742,8.146532 139.984573,11.288255 
	C141.663651,30.139544 142.436768,49.123325 145.196182,67.814285 
	C149.200012,94.934425 153.811096,122.022743 159.648636,148.800827 
	C168.485077,189.335526 180.626923,228.979889 196.082504,267.523499 
	C203.500504,286.022705 210.842728,304.610352 219.501617,322.538574 
	C229.333099,342.894653 240.244965,362.757507 251.355713,382.457764 
	C259.830414,397.484070 269.282349,411.963562 278.494995,426.563019 
	C279.486084,428.133575 281.781403,428.881073 283.515076,430.466827 
	C283.558380,435.236145 283.558380,439.549011 283.558380,443.861908 
	C283.159149,443.950195 282.759918,444.038452 282.360687,444.126740 
	C279.999725,440.825958 277.638733,437.525146 275.531738,434.022888 
	C273.585358,430.133728 271.385010,426.446075 269.184631,422.758392 
	C268.659119,423.111298 268.133636,423.464203 267.340271,423.583618 
	C264.685577,419.974670 262.298767,416.599152 259.928162,412.830811 
	C259.630524,410.709625 260.870453,407.519196 256.609283,409.055115 
	C252.791428,404.135010 248.866745,399.622101 245.865845,394.561371 
	C241.706604,387.547211 236.204056,384.209991 228.090103,386.042328 
	C226.300674,386.446442 223.647659,387.065521 223.179413,388.276642 
	C222.570099,389.852509 223.229340,392.451599 224.246384,394.026855 
	C227.743210,399.442993 231.633926,404.604828 235.139893,410.102386 
	C235.202820,411.652618 235.166748,413.178650 235.850494,414.241669 
	C241.645981,423.252075 247.542404,432.198181 253.469193,441.123291 
	C258.556396,448.784088 263.609772,456.471558 268.890442,463.998230 
	C273.244476,470.204010 277.952545,476.160065 282.426392,482.283295 
	C289.044525,491.341309 295.198914,500.771271 302.271942,509.455505 
	C311.334076,520.581970 320.987823,531.237610 330.611298,541.893311 
	C344.385834,557.145142 358.354584,572.221741 372.283813,587.333191 
	C372.924408,588.028076 374.147064,588.171021 374.832214,588.842712 
	C379.262726,593.186401 383.619232,597.605591 388.000000,602.000000 
	C352.312439,602.000000 316.624878,602.000000 280.396912,601.651978 
	C278.976685,599.937622 278.277313,598.401855 277.182831,597.237305 
	C274.040405,593.893555 270.450928,590.935791 267.552704,587.403320 
	C258.991394,576.968506 250.720154,566.296265 242.253159,555.783203 
	C236.983200,549.239685 231.327240,542.995056 226.270309,536.294922 
	C219.532700,527.368103 213.193787,518.139587 206.711990,509.020569 
	C200.764404,500.652954 194.731506,492.340973 189.022217,483.812958 
	C187.739655,481.897186 187.646057,479.185425 187.323822,476.676270 
	C191.498093,475.785431 191.907318,472.953766 191.897629,469.742615 
	C191.861053,457.623566 191.884949,445.504333 191.886246,433.385162 
	C191.887451,422.112701 191.677643,422.018921 180.565750,422.102386 
	C175.965881,422.136963 173.894089,423.913269 173.950607,428.619812 
	C174.056168,437.412872 173.884979,446.209229 173.474396,454.972961 
	C171.897964,454.169128 170.217117,453.682922 169.527802,452.578064 
	C164.608261,444.692993 159.473984,436.898438 155.195282,428.665924 
	C146.041641,411.053650 137.352737,393.199585 128.495575,375.433563 
	C123.834877,366.084961 118.739265,356.916046 114.689880,347.307800 
	C107.235252,329.619781 100.183212,311.752441 93.384567,293.800323 
	C86.994659,276.927490 80.602600,260.019623 75.217186,242.812408 
	C69.885933,225.778259 65.698456,208.380005 61.221977,191.086411 
	C57.688629,177.436310 53.984180,163.800674 51.242687,149.982620 
	C47.373714,130.481689 44.018169,110.864555 41.040409,91.206627 
	C39.331375,79.924324 38.747173,68.468040 37.755608,57.081459 
	C36.128029,38.391327 34.580997,19.694185 33.000000,1.000000 
M240.093140,452.730652 
	C240.001740,445.468231 239.550140,445.009460 232.463943,444.991058 
	C231.134430,444.987610 229.799271,445.070343 228.476364,444.976868 
	C223.912811,444.654480 222.172470,447.002136 222.236893,451.286499 
	C222.304352,455.772644 222.250626,460.260620 222.247726,464.747803 
	C222.240173,476.396423 222.239914,476.238556 233.774765,476.252502 
	C238.615051,476.258362 240.293533,474.207672 240.133636,469.631012 
	C239.948059,464.319397 240.092087,458.996246 240.093140,452.730652 
M191.885971,400.515442 
	C191.886749,399.515991 191.887650,398.516541 191.888275,397.517090 
	C191.895752,385.645660 191.840515,385.698853 179.895844,385.936462 
	C175.570480,386.022522 173.905304,387.977997 173.976700,392.072357 
	C174.057999,396.735016 173.995316,401.400208 173.995300,406.064301 
	C173.995300,417.310822 174.185089,417.494781 185.447433,417.170929 
	C185.613892,417.166138 185.780716,417.163696 185.947128,417.168701 
	C190.198944,417.296326 191.978195,415.082764 191.899170,410.994995 
	C191.837997,407.831268 191.886215,404.665375 191.885971,400.515442 
z"/>
<path fill="#492C93" opacity="1.000000" stroke="none" 
	d="
M187.005112,476.840088 
	C187.646057,479.185425 187.739655,481.897186 189.022217,483.812958 
	C194.731506,492.340973 200.764404,500.652954 206.711990,509.020569 
	C213.193787,518.139587 219.532700,527.368103 226.270309,536.294922 
	C231.327240,542.995056 236.983200,549.239685 242.253159,555.783203 
	C250.720154,566.296265 258.991394,576.968506 267.552704,587.403320 
	C270.450928,590.935791 274.040405,593.893555 277.182831,597.237305 
	C278.277313,598.401855 278.976685,599.937622 279.928253,601.651978 
	C234.979111,602.000000 189.958206,602.000000 144.389099,601.662598 
	C141.942551,598.410339 140.155518,595.415344 138.126480,592.594543 
	C129.796982,581.014771 121.073990,569.703674 113.101822,557.885010 
	C103.928467,544.285522 95.072495,530.447021 86.659988,516.365051 
	C74.325264,495.717438 62.019878,475.023590 50.623173,453.853485 
	C41.580803,437.056763 33.701645,419.616821 25.712021,402.275421 
	C18.563234,386.759033 12.022972,370.963043 5.063598,355.357605 
	C4.174607,353.364105 2.376792,351.775940 1.000003,350.000000 
	C1.000000,233.666656 1.000000,117.333313 1.000000,1.000000 
	C11.419803,1.000000 21.741243,1.000000 32.531342,1.000000 
	C34.580997,19.694185 36.128029,38.391327 37.755608,57.081459 
	C38.747173,68.468040 39.331375,79.924324 41.040409,91.206627 
	C44.018169,110.864555 47.373714,130.481689 51.242687,149.982620 
	C53.984180,163.800674 57.688629,177.436310 61.221977,191.086411 
	C65.698456,208.380005 69.885933,225.778259 75.217186,242.812408 
	C80.602600,260.019623 86.994659,276.927490 93.384567,293.800323 
	C100.183212,311.752441 107.235252,329.619781 114.689880,347.307800 
	C118.739265,356.916046 123.834877,366.084961 128.495575,375.433563 
	C137.352737,393.199585 146.041641,411.053650 155.195282,428.665924 
	C159.473984,436.898438 164.608261,444.692993 169.527802,452.578064 
	C170.217117,453.682922 171.897964,454.169128 173.542908,455.436646 
	C173.973434,458.930908 173.937195,461.931000 173.996124,464.929260 
	C174.221771,476.407684 171.952850,476.609192 185.040512,476.554504 
	C185.694977,476.551758 186.350220,476.740509 187.005112,476.840088 
z"/>
<path fill="#543899" opacity="1.000000" stroke="none" 
	d="
M684.000000,602.000000 
	C644.312439,602.000000 604.624878,602.000000 564.381226,601.661743 
	C560.143616,598.929321 556.357117,596.680481 552.800842,594.112793 
	C543.384216,587.313721 533.787415,580.722473 524.768311,573.423279 
	C505.566223,557.883057 486.394226,542.279968 467.779144,526.049744 
	C456.321350,516.059875 445.787628,504.990082 435.080383,494.166382 
	C427.738403,486.744598 420.892212,478.834869 413.667572,471.293457 
	C409.590515,467.037598 405.195953,463.085938 400.953339,458.578979 
	C404.471741,444.475250 399.658295,434.210205 386.567566,428.649078 
	C380.944580,426.260406 374.940430,424.753906 369.078613,422.946655 
	C363.064758,421.092499 356.887512,419.682434 351.046021,417.401398 
	C348.986847,416.597290 346.110687,413.454681 346.423767,411.976257 
	C346.985901,409.322144 349.524933,406.976044 351.557312,404.799530 
	C352.346191,403.954681 353.975067,403.734192 355.267029,403.549622 
	C358.903381,403.030182 360.181183,400.996155 360.270782,397.400970 
	C360.571228,385.338898 359.712799,384.585602 347.977753,387.678040 
	C347.662445,387.761139 347.322693,387.751587 346.985596,387.417969 
	C346.465393,385.682007 346.156708,384.189056 345.407410,382.966095 
	C342.114258,377.591492 338.473236,372.420380 335.359924,366.947052 
	C325.013336,348.757416 314.695526,330.548096 304.666840,312.182434 
	C300.288818,304.164917 296.510681,295.808868 292.687073,287.502045 
	C286.227051,273.467590 279.294403,259.601440 273.752838,245.205551 
	C266.354889,225.987167 259.542389,206.500290 253.498688,186.815491 
	C247.021225,165.717941 241.306580,144.359741 236.069260,122.917404 
	C232.723145,109.217941 230.746933,95.176781 228.333221,81.258179 
	C223.727524,54.699417 220.732590,27.965019 220.000000,1.000000 
	C250.687561,1.000000 281.375122,1.000000 312.531647,1.464205 
	C313.997650,11.986762 314.806702,22.068127 316.034576,32.098221 
	C318.012939,48.258984 319.713074,64.484627 322.563782,80.498970 
	C325.330139,96.039627 328.792053,111.517792 333.037933,126.719109 
	C339.119659,148.493195 346.116180,170.014648 352.960144,191.568359 
	C353.618469,193.641602 355.955719,195.181732 357.601440,197.433167 
	C357.689362,248.793854 357.689362,299.690735 357.689362,351.150818 
	C379.458374,351.150818 400.727722,351.150818 422.076538,351.499817 
	C422.865845,353.691254 423.213837,355.801086 424.345154,357.332153 
	C430.954163,366.276215 437.711853,375.111603 444.516083,383.908875 
	C445.496613,385.176605 446.999298,386.040497 448.213318,387.553040 
	C448.059601,390.335205 447.862366,392.655518 447.860321,394.975983 
	C447.839508,418.735352 447.818573,442.494781 447.865234,466.254059 
	C447.890106,478.918854 446.930206,476.818298 458.912018,476.978455 
	C464.416595,477.052002 465.832001,475.525787 465.890350,469.907501 
	C465.976562,461.605347 466.028992,453.302856 466.486938,445.002228 
	C469.052979,446.212708 471.349731,447.252136 473.356201,448.695160 
	C474.515961,449.529236 475.062195,451.167908 476.133667,452.181061 
	C482.807983,458.491852 489.549042,464.732147 496.275085,470.988159 
	C502.371918,476.658905 508.358734,482.455231 514.607666,487.953369 
	C523.893066,496.123047 533.510376,503.918274 542.722107,512.168091 
	C553.084595,521.448547 563.776428,530.242493 575.525574,537.740417 
	C586.510498,544.750671 597.381897,551.940308 608.254395,559.124817 
	C614.179016,563.039856 619.759705,567.538208 625.923523,571.014587 
	C637.400085,577.487244 649.113647,583.555359 660.879333,589.493225 
	C667.171448,592.668884 673.834961,595.102295 680.201111,598.142456 
	C681.732300,598.873657 682.747498,600.685242 684.000000,602.000000 
M399.433319,409.084229 
	C396.740753,396.695404 385.903351,387.245819 373.110199,386.339050 
	C371.821075,386.247620 370.062103,386.833160 369.197327,387.745453 
	C365.600372,391.539764 368.066864,402.148834 372.889069,404.061432 
	C377.406067,405.853027 380.869812,408.346466 382.278503,413.484497 
	C382.731964,415.138367 385.303284,416.626465 387.222076,417.341553 
	C388.974548,417.994659 391.155823,417.545990 393.146393,417.502411 
	C399.116089,417.371796 400.279266,415.985779 399.433319,409.084229 
M424.160339,403.503143 
	C427.806152,403.498352 431.520386,403.906219 435.069397,403.317627 
	C436.888794,403.015900 439.528015,401.189972 439.890991,399.613983 
	C442.420258,388.631683 440.146088,385.989838 428.979919,385.990356 
	C427.819824,385.990417 426.653107,386.071198 425.500763,385.976837 
	C420.808441,385.592407 418.718414,387.754791 418.975464,392.406982 
	C419.075897,394.224487 419.043274,396.053833 418.981934,397.874786 
	C418.878143,400.955780 420.025665,403.010284 424.160339,403.503143 
z"/>
<path fill="#513497" opacity="1.000000" stroke="none" 
	d="
M219.531342,1.000000 
	C220.732590,27.965019 223.727524,54.699417 228.333221,81.258179 
	C230.746933,95.176781 232.723145,109.217941 236.069260,122.917404 
	C241.306580,144.359741 247.021225,165.717941 253.498688,186.815491 
	C259.542389,206.500290 266.354889,225.987167 273.752838,245.205551 
	C279.294403,259.601440 286.227051,273.467590 292.687073,287.502045 
	C296.510681,295.808868 300.288818,304.164917 304.666840,312.182434 
	C314.695526,330.548096 325.013336,348.757416 335.359924,366.947052 
	C338.473236,372.420380 342.114258,377.591492 345.407410,382.966095 
	C346.156708,384.189056 346.465393,385.682007 346.636230,387.572632 
	C336.794342,390.385895 331.803345,397.032501 329.270935,405.928955 
	C326.659821,415.101746 329.065979,423.420410 336.968567,428.830658 
	C341.940399,432.234406 347.698517,434.717194 353.408691,436.761902 
	C362.120789,439.881561 371.103973,442.240845 379.958038,444.968506 
	C386.343689,446.935760 384.759674,454.973389 380.674774,457.203735 
	C378.532898,458.373260 376.103088,459.371918 373.710815,459.648956 
	C369.337341,460.155334 367.523254,462.261383 367.882172,466.565826 
	C368.033630,468.382477 367.915894,470.221924 367.912354,472.051025 
	C367.905579,475.558136 369.551331,477.257599 373.150513,477.016052 
	C385.770355,476.169159 395.695007,471.197540 400.944397,458.997253 
	C405.195953,463.085938 409.590515,467.037598 413.667572,471.293457 
	C420.892212,478.834869 427.738403,486.744598 435.080383,494.166382 
	C445.787628,504.990082 456.321350,516.059875 467.779144,526.049744 
	C486.394226,542.279968 505.566223,557.883057 524.768311,573.423279 
	C533.787415,580.722473 543.384216,587.313721 552.800842,594.112793 
	C556.357117,596.680481 560.143616,598.929321 563.912598,601.661743 
	C532.312439,602.000000 500.624878,602.000000 468.379639,601.662476 
	C467.458496,600.780640 467.206879,600.090149 466.714935,599.713745 
	C457.680054,592.801575 447.888458,586.690857 439.703796,578.892151 
	C420.047424,560.162781 400.819855,540.953735 382.040588,521.343201 
	C368.165283,506.853699 355.244751,491.448029 341.985565,476.374176 
	C340.971954,475.221802 340.648804,473.462097 340.360870,472.043762 
	C345.084442,473.632996 349.395233,475.372803 353.850891,476.576050 
	C355.347809,476.980286 357.711823,476.575989 358.821350,475.582703 
	C362.914459,471.918152 359.891693,460.486481 354.581238,458.909210 
	C349.479340,457.393890 345.415588,454.698364 344.474457,449.104370 
	C343.778564,444.967987 341.567871,443.757050 337.603241,443.757904 
	C325.996979,443.760406 325.996948,443.640625 326.593811,454.913452 
	C325.968323,454.683777 325.552917,454.624756 325.389343,454.390198 
	C318.890930,445.069061 312.474670,435.689728 305.875214,426.441040 
	C304.843201,424.994690 302.991455,424.133270 301.419159,422.542206 
	C301.302216,412.103699 301.212036,402.123718 301.300720,392.145355 
	C301.340057,387.717133 299.481445,385.627289 294.990326,385.982697 
	C293.667999,386.087341 292.330383,385.996338 290.999756,385.998901 
	C283.722595,386.013000 283.639648,386.074005 283.601562,393.590332 
	C283.540039,405.730255 283.513245,417.870361 283.471741,430.010376 
	C281.781403,428.881073 279.486084,428.133575 278.494995,426.563019 
	C269.282349,411.963562 259.830414,397.484070 251.355713,382.457764 
	C240.244965,362.757507 229.333099,342.894653 219.501617,322.538574 
	C210.842728,304.610352 203.500504,286.022705 196.082504,267.523499 
	C180.626923,228.979889 168.485077,189.335526 159.648636,148.800827 
	C153.811096,122.022743 149.200012,94.934425 145.196182,67.814285 
	C142.436768,49.123325 141.663651,30.139544 139.984573,11.288255 
	C139.704742,8.146532 139.331482,5.013132 139.000702,1.437943 
	C165.687561,1.000000 192.375122,1.000000 219.531342,1.000000 
z"/>
<path fill="#6046A1" opacity="1.000000" stroke="none" 
	d="
M513.000000,1.000000 
	C545.020874,1.000000 577.041809,1.000000 609.531372,1.456242 
	C610.473328,7.199541 610.452515,12.589947 611.531860,17.750256 
	C613.298584,26.197538 615.919800,34.462109 617.919312,42.865898 
	C619.656372,50.166386 620.674011,57.651279 622.659973,64.875870 
	C624.993652,73.365097 629.481873,81.090263 631.214905,89.919319 
	C632.262207,95.254982 635.499451,100.156647 637.721680,105.266785 
	C641.141602,113.130882 644.370789,121.083839 648.020813,128.839066 
	C649.469177,131.916199 652.171509,134.392059 653.705017,137.442276 
	C658.215942,146.415024 661.264954,156.084045 668.552795,163.625580 
	C672.268372,167.470505 674.673523,172.578690 677.689758,177.103348 
	C682.613464,184.489349 686.924622,192.399582 692.639526,199.113861 
	C700.283813,208.094940 709.272461,215.918243 717.199341,224.677200 
	C722.304321,230.318115 727.323975,235.794983 733.492737,240.432724 
	C742.276184,247.036209 750.584045,254.353073 758.559265,261.929169 
	C767.594421,270.512085 777.635742,277.343262 788.815063,282.765381 
	C795.822937,286.164276 802.479858,290.283905 809.315918,294.040710 
	C815.970764,297.697968 822.544373,301.527069 829.356018,304.867981 
	C835.482849,307.873047 841.893494,310.297089 848.160278,313.020294 
	C850.883545,314.203644 853.487488,316.348999 856.270752,316.585449 
	C867.183716,317.512573 875.678345,326.820526 887.261108,325.288574 
	C888.257507,325.156769 889.431885,326.608612 890.569824,327.241425 
	C891.694275,327.866730 892.823730,328.684326 894.043579,328.904633 
	C903.223816,330.562531 912.427307,332.091492 921.622314,333.667572 
	C922.606506,333.836243 923.858337,333.726501 924.519165,334.291718 
	C928.955200,338.086243 934.245300,336.777313 939.287781,337.015717 
	C941.275330,337.109711 943.263062,337.308319 945.236694,337.566345 
	C953.827271,338.689392 962.412720,339.851868 971.000000,341.000000 
	C971.000000,361.020905 971.000000,381.041779 970.596008,401.563049 
	C966.416077,402.045502 962.612976,402.313660 958.868896,401.959290 
	C944.201416,400.571289 929.552856,398.982391 914.896240,397.478912 
	C911.925781,397.174194 908.870117,397.256012 905.992310,396.574463 
	C896.405884,394.304108 886.886230,391.752594 877.331299,389.347565 
	C875.726746,388.943726 874.004272,388.934113 872.454285,388.399994 
	C858.708740,383.663483 844.890625,379.112488 831.294739,373.975098 
	C820.556824,369.917633 810.007019,365.319672 799.555420,360.562317 
	C792.834106,357.502869 786.394958,353.805573 779.914185,350.239929 
	C771.430542,345.572357 762.891907,340.979980 754.630249,335.940094 
	C744.621216,329.834259 734.629517,323.641357 725.092285,316.838470 
	C716.774780,310.905487 708.846558,304.356720 701.205627,297.563446 
	C692.519653,289.841125 684.297546,281.592468 675.970703,273.473175 
	C673.038940,270.614532 670.460632,267.396820 667.600647,264.460236 
	C663.951111,260.712921 659.777344,257.405334 656.536377,253.344162 
	C646.955750,241.338867 637.395203,229.290894 628.452576,216.811157 
	C620.565247,205.804169 613.544800,194.177338 606.063782,182.875702 
	C605.308716,181.735031 604.016663,180.949814 602.872375,179.540390 
	C602.770935,154.875137 602.770935,130.669144 602.770935,105.816994 
	C579.753113,105.816994 557.373230,105.816994 534.900513,105.479546 
	C533.243042,101.147949 531.158325,97.273880 530.203735,93.138901 
	C526.036377,75.086586 521.840332,57.026745 518.362183,38.834362 
	C515.973022,26.337954 514.746338,13.619307 513.000000,1.000000 
z"/>
<path fill="#654CA3" opacity="1.000000" stroke="none" 
	d="
M971.000000,216.000000 
	C971.000000,240.687561 971.000000,265.375122 970.533813,290.531372 
	C963.330750,290.336121 956.589355,289.714325 949.858215,288.996277 
	C943.273010,288.293793 936.554932,288.106659 930.148438,286.609528 
	C916.298523,283.372894 902.558655,279.626343 888.867798,275.755920 
	C864.223694,268.788910 841.424133,257.497070 819.372742,244.768234 
	C796.798462,231.737503 776.561523,215.492767 757.882141,197.345047 
	C741.497070,181.426285 726.566162,164.250961 714.075745,145.064346 
	C708.454346,136.429352 702.451111,127.966438 697.691711,118.865585 
	C691.379761,106.796036 685.472839,94.426689 680.571899,81.730652 
	C675.071594,67.481895 670.295105,52.884975 666.315125,38.139542 
	C663.035034,25.986883 661.376953,13.396434 659.000000,0.999997 
	C684.354248,1.000000 709.708435,1.000000 735.531982,1.434288 
	C736.583557,6.143497 736.781677,10.513309 737.810486,14.677914 
	C744.422363,41.441666 753.461853,67.266533 768.381409,90.687698 
	C773.555054,98.809441 778.442810,107.209419 784.462952,114.674461 
	C794.764160,127.448318 805.537964,139.781586 817.957092,150.750153 
	C833.644836,164.605652 850.505859,176.527328 868.868469,186.419556 
	C890.837219,198.254456 914.096985,206.667114 938.548157,211.500748 
	C949.243958,213.615158 960.175476,214.536743 971.000000,216.000000 
z"/>
<path fill="#6349A2" opacity="1.000000" stroke="none" 
	d="
M658.531372,0.999997 
	C661.376953,13.396434 663.035034,25.986883 666.315125,38.139542 
	C670.295105,52.884975 675.071594,67.481895 680.571899,81.730652 
	C685.472839,94.426689 691.379761,106.796036 697.691711,118.865585 
	C702.451111,127.966438 708.454346,136.429352 714.075745,145.064346 
	C726.566162,164.250961 741.497070,181.426285 757.882141,197.345047 
	C776.561523,215.492767 796.798462,231.737503 819.372742,244.768234 
	C841.424133,257.497070 864.223694,268.788910 888.867798,275.755920 
	C902.558655,279.626343 916.298523,283.372894 930.148438,286.609528 
	C936.554932,288.106659 943.273010,288.293793 949.858215,288.996277 
	C956.589355,289.714325 963.330750,290.336121 970.533813,291.000000 
	C971.000000,307.354218 971.000000,323.708466 971.000000,340.531342 
	C962.412720,339.851868 953.827271,338.689392 945.236694,337.566345 
	C943.263062,337.308319 941.275330,337.109711 939.287781,337.015717 
	C934.245300,336.777313 928.955200,338.086243 924.519165,334.291718 
	C923.858337,333.726501 922.606506,333.836243 921.622314,333.667572 
	C912.427307,332.091492 903.223816,330.562531 894.043579,328.904633 
	C892.823730,328.684326 891.694275,327.866730 890.569824,327.241425 
	C889.431885,326.608612 888.257507,325.156769 887.261108,325.288574 
	C875.678345,326.820526 867.183716,317.512573 856.270752,316.585449 
	C853.487488,316.348999 850.883545,314.203644 848.160278,313.020294 
	C841.893494,310.297089 835.482849,307.873047 829.356018,304.867981 
	C822.544373,301.527069 815.970764,297.697968 809.315918,294.040710 
	C802.479858,290.283905 795.822937,286.164276 788.815063,282.765381 
	C777.635742,277.343262 767.594421,270.512085 758.559265,261.929169 
	C750.584045,254.353073 742.276184,247.036209 733.492737,240.432724 
	C727.323975,235.794983 722.304321,230.318115 717.199341,224.677200 
	C709.272461,215.918243 700.283813,208.094940 692.639526,199.113861 
	C686.924622,192.399582 682.613464,184.489349 677.689758,177.103348 
	C674.673523,172.578690 672.268372,167.470505 668.552795,163.625580 
	C661.264954,156.084045 658.215942,146.415024 653.705017,137.442276 
	C652.171509,134.392059 649.469177,131.916199 648.020813,128.839066 
	C644.370789,121.083839 641.141602,113.130882 637.721680,105.266785 
	C635.499451,100.156647 632.262207,95.254982 631.214905,89.919319 
	C629.481873,81.090263 624.993652,73.365097 622.659973,64.875870 
	C620.674011,57.651279 619.656372,50.166386 617.919312,42.865898 
	C615.919800,34.462109 613.298584,26.197538 611.531860,17.750256 
	C610.452515,12.589947 610.473328,7.199541 610.000000,1.456242 
	C626.020874,1.000000 642.041809,1.000000 658.531372,0.999997 
z"/>
<path fill="#5D439E" opacity="1.000000" stroke="none" 
	d="
M971.000000,439.000000 
	C971.000000,457.687561 971.000000,476.375122 970.531372,495.531342 
	C957.015625,495.216705 943.983093,496.996460 930.853394,494.164093 
	C916.552856,491.079071 901.805603,490.111511 887.301270,487.904236 
	C880.483459,486.866638 873.776917,485.094635 867.025879,483.628296 
	C866.555359,483.526123 866.155396,483.126526 865.686523,482.985107 
	C862.328857,481.972443 858.987976,480.885834 855.587585,480.040527 
	C853.678711,479.566040 851.568359,479.808868 849.718689,479.206696 
	C842.885193,476.981995 836.161011,474.421021 829.323914,472.208252 
	C819.924988,469.166412 810.435425,466.404388 801.036743,463.361847 
	C797.176208,462.112122 793.482056,460.356842 789.654541,458.993622 
	C786.507202,457.872681 783.274536,456.991333 780.130615,455.655792 
	C784.841431,447.288788 786.213013,438.610229 786.077332,429.415070 
	C785.803284,410.843445 774.473022,394.027802 756.999512,388.237305 
	C744.899719,384.227631 743.768982,384.341949 744.216858,397.767487 
	C744.326843,401.065918 745.652832,402.996582 748.877808,403.885681 
	C759.391663,406.784241 765.756531,413.968903 767.652283,424.389587 
	C769.635498,435.291290 768.115417,445.658844 758.523438,453.238403 
	C743.145325,445.035828 728.123596,437.019073 713.045471,428.589844 
	C713.777161,416.291718 720.639832,407.300751 731.818298,404.012573 
	C735.458130,402.941925 737.120239,400.985474 736.890930,397.247101 
	C736.779419,395.428101 736.959839,393.591125 736.846191,391.772369 
	C736.550293,387.039429 734.206360,385.443207 729.573730,386.386719 
	C720.692017,388.195618 713.593811,393.118195 706.920166,398.627136 
	C705.962158,396.917206 705.369812,395.154755 704.144226,394.253326 
	C695.314880,387.759308 686.179932,381.671143 677.483887,375.007874 
	C665.930664,366.155396 654.231812,357.404144 643.434204,347.678223 
	C631.506714,336.934631 620.574402,325.090393 609.084045,313.852966 
	C607.401062,312.207062 605.028259,311.266479 602.872009,309.540527 
	C602.837646,288.054230 602.905945,267.026917 603.335632,246.026611 
	C607.208923,249.647293 610.952759,253.045517 614.182068,256.877258 
	C620.036072,263.823303 625.422180,271.164276 631.290710,278.097351 
	C646.192200,295.701782 663.194458,311.204529 680.818970,325.965698 
	C691.925842,335.268066 702.867432,344.814087 715.590210,352.143524 
	C725.792175,358.020721 735.148926,365.347412 745.080444,371.719574 
	C749.614380,374.628632 754.663696,376.724945 759.409058,379.318451 
	C761.277344,380.339508 762.859863,381.886353 764.734314,382.892395 
	C771.747559,386.656281 778.788757,390.372864 785.898865,393.949371 
	C789.522339,395.771973 793.232910,397.487915 797.047363,398.851166 
	C805.701477,401.944061 814.770752,404.088013 823.052185,407.946533 
	C830.231079,411.291412 836.817688,415.648285 845.177673,415.194733 
	C846.077698,415.145905 847.018616,415.854797 847.940857,416.211578 
	C853.708130,418.442932 859.336975,421.193787 865.277161,422.775909 
	C872.997620,424.832123 880.997742,425.814728 888.811951,427.553680 
	C892.182129,428.303680 895.358398,430.652924 898.674927,430.767456 
	C906.001099,431.020447 913.047607,431.684265 920.175476,433.863770 
	C925.602966,435.523346 931.696350,434.880310 937.440308,435.655945 
	C948.592285,437.161804 959.581482,440.185425 971.000000,439.000000 
z"/>
<path fill="#5A3F9D" opacity="1.000000" stroke="none" 
	d="
M780.079651,456.003784 
	C783.274536,456.991333 786.507202,457.872681 789.654541,458.993622 
	C793.482056,460.356842 797.176208,462.112122 801.036743,463.361847 
	C810.435425,466.404388 819.924988,469.166412 829.323914,472.208252 
	C836.161011,474.421021 842.885193,476.981995 849.718689,479.206696 
	C851.568359,479.808868 853.678711,479.566040 855.587585,480.040527 
	C858.987976,480.885834 862.328857,481.972443 865.686523,482.985107 
	C866.155396,483.126526 866.555359,483.526123 867.025879,483.628296 
	C873.776917,485.094635 880.483459,486.866638 887.301270,487.904236 
	C901.805603,490.111511 916.552856,491.079071 930.853394,494.164093 
	C943.983093,496.996460 957.015625,495.216705 970.531372,496.000000 
	C971.000000,516.354248 971.000000,536.708435 970.531433,557.531372 
	C962.435242,557.683289 954.809753,557.170532 947.179565,557.087219 
	C925.858765,556.854370 905.108826,552.142334 884.120911,549.299805 
	C881.333374,548.922302 878.469604,548.897949 875.753052,548.244751 
	C867.709900,546.310547 859.734070,544.098938 851.711243,542.077698 
	C838.889832,538.847412 825.797729,536.451050 813.281189,532.308655 
	C795.053528,526.276245 776.880737,519.809814 759.331055,512.063660 
	C736.901062,502.163452 715.105713,490.823608 693.056946,480.062927 
	C687.721191,477.458862 682.464417,474.692993 677.101685,471.549072 
	C677.023560,469.431305 677.011230,467.765991 677.007202,466.100647 
	C676.991272,459.413849 676.462036,458.881317 669.969727,458.819183 
	C664.979065,458.771423 659.988892,458.678192 654.951538,458.278625 
	C651.077515,454.736877 647.437683,451.255219 643.362976,448.392639 
	C640.229675,446.191528 636.549072,444.769531 633.031616,442.538391 
	C632.940857,425.755127 632.952209,409.434570 632.907654,393.114136 
	C632.892273,387.485535 631.424194,386.061005 625.885193,385.993469 
	C624.719543,385.979248 623.553711,385.986969 622.387939,385.992828 
	C615.925110,386.025299 615.363892,386.547363 614.508789,392.911255 
	C607.774414,387.807404 601.158264,383.038696 595.033875,377.705261 
	C589.789062,373.137817 584.934937,368.081329 580.235168,362.941956 
	C576.875977,359.268646 574.058167,355.100311 571.462524,351.079834 
	C581.283752,351.055878 590.641296,351.104919 600.085876,351.479492 
	C604.090515,355.931366 607.982910,360.082062 611.934692,364.175446 
	C614.523499,366.857056 616.766235,370.744873 619.930420,371.805206 
	C625.392639,373.635620 628.277466,378.030487 632.358582,381.200897 
	C637.485535,385.183807 642.851196,388.868225 647.870850,392.978241 
	C652.338684,396.636475 656.173645,401.118988 660.838379,404.471832 
	C666.057007,408.222778 672.631409,410.311279 677.274292,414.581757 
	C682.874329,419.732452 691.017212,421.739197 694.831299,429.461151 
	C694.924377,431.582031 694.964844,433.242798 694.982056,434.903839 
	C695.205383,456.486084 711.743958,472.670807 730.060364,476.200836 
	C731.768555,476.530029 734.298157,476.245972 735.445984,475.174713 
	C739.483154,471.407074 736.452515,460.087463 731.213867,458.369690 
	C721.334106,455.130127 715.419006,448.426056 713.792480,437.986511 
	C713.711914,437.210693 713.443481,436.603546 713.092773,435.563904 
	C713.040955,433.088379 713.071472,431.045319 713.101929,429.002289 
	C728.123596,437.019073 743.145325,445.035828 758.291748,453.522949 
	C755.155945,455.596771 751.719055,456.930573 748.700989,458.904633 
	C746.885925,460.091827 745.084839,462.069763 744.437134,464.068176 
	C743.704285,466.329468 744.122620,469.022156 744.302979,471.508240 
	C744.617004,475.837677 746.612854,477.166779 751.006470,476.308716 
	C763.699219,473.829773 772.907837,466.379028 780.079651,456.003784 
z"/>
<path fill="#6B53A7" opacity="1.000000" stroke="none" 
	d="
M799.000000,1.000000 
	C856.255859,1.000000 913.511658,1.000000 971.000000,1.000000 
	C971.000000,51.353989 971.000000,101.708336 970.551147,152.531342 
	C962.355530,152.287720 954.606079,151.602066 946.865479,150.829041 
	C945.912354,150.733856 945.011597,150.155807 944.076904,149.829056 
	C937.626038,147.574142 931.149353,145.390472 924.730042,143.049316 
	C921.558655,141.892700 918.505127,140.416931 915.374451,139.144165 
	C910.329712,137.093231 904.880737,135.726227 900.283875,132.944427 
	C888.249634,125.661789 875.989746,118.534836 864.918152,109.932304 
	C850.326477,98.594772 838.440002,84.302528 827.947510,69.164925 
	C821.751709,60.226177 817.256287,50.085987 812.229431,40.365490 
	C805.804382,27.941334 801.592957,14.732626 799.000000,1.000000 
z"/>
<path fill="#674EA5" opacity="1.000000" stroke="none" 
	d="
M798.531372,1.000000 
	C801.592957,14.732626 805.804382,27.941334 812.229431,40.365490 
	C817.256287,50.085987 821.751709,60.226177 827.947510,69.164925 
	C838.440002,84.302528 850.326477,98.594772 864.918152,109.932304 
	C875.989746,118.534836 888.249634,125.661789 900.283875,132.944427 
	C904.880737,135.726227 910.329712,137.093231 915.374451,139.144165 
	C918.505127,140.416931 921.558655,141.892700 924.730042,143.049316 
	C931.149353,145.390472 937.626038,147.574142 944.076904,149.829056 
	C945.011597,150.155807 945.912354,150.733856 946.865479,150.829041 
	C954.606079,151.602066 962.355530,152.287720 970.551147,153.000000 
	C971.000000,173.687561 971.000000,194.375122 971.000000,215.531342 
	C960.175476,214.536743 949.243958,213.615158 938.548157,211.500748 
	C914.096985,206.667114 890.837219,198.254456 868.868469,186.419556 
	C850.505859,176.527328 833.644836,164.605652 817.957092,150.750153 
	C805.537964,139.781586 794.764160,127.448318 784.462952,114.674461 
	C778.442810,107.209419 773.555054,98.809441 768.381409,90.687698 
	C753.461853,67.266533 744.422363,41.441666 737.810486,14.677914 
	C736.781677,10.513309 736.583557,6.143497 736.000610,1.434288 
	C756.687561,1.000000 777.375122,1.000000 798.531372,1.000000 
z"/>
<path fill="#452791" opacity="1.000000" stroke="none" 
	d="
M1.000003,350.468658 
	C2.376792,351.775940 4.174607,353.364105 5.063598,355.357605 
	C12.022972,370.963043 18.563234,386.759033 25.712021,402.275421 
	C33.701645,419.616821 41.580803,437.056763 50.623173,453.853485 
	C62.019878,475.023590 74.325264,495.717438 86.659988,516.365051 
	C95.072495,530.447021 103.928467,544.285522 113.101822,557.885010 
	C121.073990,569.703674 129.796982,581.014771 138.126480,592.594543 
	C140.155518,595.415344 141.942551,598.410339 143.920441,601.662598 
	C96.386169,602.000000 48.772346,602.000000 1.000000,602.000000 
	C1.000000,518.312500 1.000000,434.624908 1.000003,350.468658 
z"/>
<path fill="#5F45A0" opacity="1.000000" stroke="none" 
	d="
M971.000000,438.531342 
	C959.581482,440.185425 948.592285,437.161804 937.440308,435.655945 
	C931.696350,434.880310 925.602966,435.523346 920.175476,433.863770 
	C913.047607,431.684265 906.001099,431.020447 898.674927,430.767456 
	C895.358398,430.652924 892.182129,428.303680 888.811951,427.553680 
	C880.997742,425.814728 872.997620,424.832123 865.277161,422.775909 
	C859.336975,421.193787 853.708130,418.442932 847.940857,416.211578 
	C847.018616,415.854797 846.077698,415.145905 845.177673,415.194733 
	C836.817688,415.648285 830.231079,411.291412 823.052185,407.946533 
	C814.770752,404.088013 805.701477,401.944061 797.047363,398.851166 
	C793.232910,397.487915 789.522339,395.771973 785.898865,393.949371 
	C778.788757,390.372864 771.747559,386.656281 764.734314,382.892395 
	C762.859863,381.886353 761.277344,380.339508 759.409058,379.318451 
	C754.663696,376.724945 749.614380,374.628632 745.080444,371.719574 
	C735.148926,365.347412 725.792175,358.020721 715.590210,352.143524 
	C702.867432,344.814087 691.925842,335.268066 680.818970,325.965698 
	C663.194458,311.204529 646.192200,295.701782 631.290710,278.097351 
	C625.422180,271.164276 620.036072,263.823303 614.182068,256.877258 
	C610.952759,253.045517 607.208923,249.647293 603.233643,245.567505 
	C602.838135,223.387451 602.905945,201.693542 602.973816,179.999634 
	C604.016663,180.949814 605.308716,181.735031 606.063782,182.875702 
	C613.544800,194.177338 620.565247,205.804169 628.452576,216.811157 
	C637.395203,229.290894 646.955750,241.338867 656.536377,253.344162 
	C659.777344,257.405334 663.951111,260.712921 667.600647,264.460236 
	C670.460632,267.396820 673.038940,270.614532 675.970703,273.473175 
	C684.297546,281.592468 692.519653,289.841125 701.205627,297.563446 
	C708.846558,304.356720 716.774780,310.905487 725.092285,316.838470 
	C734.629517,323.641357 744.621216,329.834259 754.630249,335.940094 
	C762.891907,340.979980 771.430542,345.572357 779.914185,350.239929 
	C786.394958,353.805573 792.834106,357.502869 799.555420,360.562317 
	C810.007019,365.319672 820.556824,369.917633 831.294739,373.975098 
	C844.890625,379.112488 858.708740,383.663483 872.454285,388.399994 
	C874.004272,388.934113 875.726746,388.943726 877.331299,389.347565 
	C886.886230,391.752594 896.405884,394.304108 905.992310,396.574463 
	C908.870117,397.256012 911.925781,397.174194 914.896240,397.478912 
	C929.552856,398.982391 944.201416,400.571289 958.868896,401.959290 
	C962.612976,402.313660 966.416077,402.045502 970.596008,402.031677 
	C971.000000,414.020905 971.000000,426.041779 971.000000,438.531342 
z"/>
<path fill="#573B9B" opacity="1.000000" stroke="none" 
	d="
M971.000000,596.000000 
	C971.000000,597.995850 971.000000,599.991699 971.000000,601.993774 
	C902.979126,602.000000 834.958191,602.000000 766.337524,601.679993 
	C764.637085,600.676514 763.609497,599.809570 762.424561,599.337769 
	C749.746094,594.289185 736.967834,589.484375 724.360291,584.266296 
	C686.701904,568.679810 650.863647,549.486389 616.956482,527.008667 
	C595.796387,512.981262 575.980530,496.922089 555.651123,481.655212 
	C554.367981,480.691589 553.864197,478.690125 553.392334,477.100830 
	C558.233032,477.133087 559.897095,474.698029 559.865173,470.540741 
	C559.811768,463.599457 560.261108,456.626312 559.735718,449.724640 
	C559.222046,442.976379 561.184631,437.558441 566.335327,433.030884 
	C567.639465,433.663330 568.667725,434.165680 569.530701,434.870331 
	C577.795715,441.618896 586.027649,448.407990 594.280823,455.171112 
	C597.201355,457.564362 600.051758,460.061371 603.118225,462.253662 
	C606.926086,464.976105 610.924744,467.431610 614.912842,470.407410 
	C614.516052,475.335144 617.225830,476.437592 621.039673,476.723969 
	C622.015747,478.172852 622.746155,479.601593 623.911499,480.373871 
	C638.846252,490.270844 653.552490,500.559814 668.912842,509.753113 
	C682.133667,517.665894 696.003357,524.532227 709.800293,531.433044 
	C721.822388,537.446167 733.955078,543.321838 746.386108,548.410217 
	C758.658630,553.433716 771.270813,557.692200 783.906982,561.747131 
	C800.795837,567.166748 817.734192,572.508606 834.870239,577.059021 
	C850.414551,581.186829 866.170044,584.655090 881.987488,587.573730 
	C894.006653,589.791504 906.282593,590.589478 918.420288,592.200073 
	C935.875671,594.516174 953.345520,596.498474 971.000000,596.000000 
z"/>
<path fill="#593E9C" opacity="1.000000" stroke="none" 
	d="
M357.513550,196.969345 
	C355.955719,195.181732 353.618469,193.641602 352.960144,191.568359 
	C346.116180,170.014648 339.119659,148.493195 333.037933,126.719109 
	C328.792053,111.517792 325.330139,96.039627 322.563782,80.498970 
	C319.713074,64.484627 318.012939,48.258984 316.034576,32.098221 
	C314.806702,22.068127 313.997650,11.986762 313.000305,1.464205 
	C352.354218,1.000000 391.708466,1.000000 431.531342,1.453255 
	C432.654724,9.953431 433.123444,18.020979 434.013000,26.041855 
	C435.035492,35.261364 436.049286,44.511105 437.758362,53.617935 
	C439.988647,65.501617 442.821686,77.275490 445.547943,89.061310 
	C446.849487,94.688087 448.503082,100.233444 449.532776,105.881340 
	C418.807739,105.946999 388.547089,105.946999 357.749786,105.946999 
	C357.749786,108.240341 357.754486,110.196472 357.749084,112.152580 
	C357.671356,140.424835 357.592316,168.697098 357.513550,196.969345 
z"/>
<path fill="#593E9C" opacity="1.000000" stroke="none" 
	d="
M971.000000,595.531372 
	C953.345520,596.498474 935.875671,594.516174 918.420288,592.200073 
	C906.282593,590.589478 894.006653,589.791504 881.987488,587.573730 
	C866.170044,584.655090 850.414551,581.186829 834.870239,577.059021 
	C817.734192,572.508606 800.795837,567.166748 783.906982,561.747131 
	C771.270813,557.692200 758.658630,553.433716 746.386108,548.410217 
	C733.955078,543.321838 721.822388,537.446167 709.800293,531.433044 
	C696.003357,524.532227 682.133667,517.665894 668.912842,509.753113 
	C653.552490,500.559814 638.846252,490.270844 623.911499,480.373871 
	C622.746155,479.601593 622.015747,478.172852 621.483276,476.634003 
	C632.919861,476.066345 632.896301,476.066284 632.926636,464.824402 
	C632.946289,457.549866 633.047241,450.275513 633.111816,443.001099 
	C636.549072,444.769531 640.229675,446.191528 643.362976,448.392639 
	C647.437683,451.255219 651.077515,454.736877 654.494873,458.365997 
	C653.419678,458.793549 652.754089,458.820831 652.088562,458.818817 
	C638.071106,458.776581 640.599792,458.400421 640.260071,470.999298 
	C640.160889,474.676117 641.677795,476.151337 645.116699,476.153931 
	C654.104736,476.160736 663.092896,476.135590 672.080627,476.187988 
	C675.019104,476.205109 676.874756,475.100952 677.171326,472.001526 
	C682.464417,474.692993 687.721191,477.458862 693.056946,480.062927 
	C715.105713,490.823608 736.901062,502.163452 759.331055,512.063660 
	C776.880737,519.809814 795.053528,526.276245 813.281189,532.308655 
	C825.797729,536.451050 838.889832,538.847412 851.711243,542.077698 
	C859.734070,544.098938 867.709900,546.310547 875.753052,548.244751 
	C878.469604,548.897949 881.333374,548.922302 884.120911,549.299805 
	C905.108826,552.142334 925.858765,556.854370 947.179565,557.087219 
	C954.809753,557.170532 962.435242,557.683289 970.531433,558.000000 
	C971.000000,570.354248 971.000000,582.708435 971.000000,595.531372 
z"/>
<path fill="#503397" opacity="1.000000" stroke="none" 
	d="
M340.004730,471.984650 
	C340.648804,473.462097 340.971954,475.221802 341.985565,476.374176 
	C355.244751,491.448029 368.165283,506.853699 382.040588,521.343201 
	C400.819855,540.953735 420.047424,560.162781 439.703796,578.892151 
	C447.888458,586.690857 457.680054,592.801575 466.714935,599.713745 
	C467.206879,600.090149 467.458496,600.780640 467.910980,601.662476 
	C441.645782,602.000000 415.291534,602.000000 388.468658,602.000000 
	C383.619232,597.605591 379.262726,593.186401 374.832214,588.842712 
	C374.147064,588.171021 372.924408,588.028076 372.283813,587.333191 
	C358.354584,572.221741 344.385834,557.145142 330.611298,541.893311 
	C320.987823,531.237610 311.334076,520.581970 302.271942,509.455505 
	C295.198914,500.771271 289.044525,491.341309 282.426392,482.283295 
	C277.952545,476.160065 273.244476,470.204010 268.890442,463.998230 
	C263.609772,456.471558 258.556396,448.784088 253.469193,441.123291 
	C247.542404,432.198181 241.645981,423.252075 235.850494,414.241669 
	C235.166748,413.178650 235.202820,411.652618 235.408295,410.287659 
	C250.118469,429.695312 264.559814,448.992432 278.383575,468.722229 
	C282.303955,474.317535 286.260529,476.940613 293.197449,476.318726 
	C300.801697,475.637024 301.238312,475.739563 301.275146,467.883362 
	C301.345306,452.922668 301.436340,437.962036 301.518677,423.001404 
	C302.991455,424.133270 304.843201,424.994690 305.875214,426.441040 
	C312.474670,435.689728 318.890930,445.069061 325.389343,454.390198 
	C325.552917,454.624756 325.968323,454.683777 326.791870,455.213318 
	C329.397980,462.726807 334.233490,467.718048 340.004730,471.984650 
z"/>
<path fill="#55399A" opacity="1.000000" stroke="none" 
	d="
M552.997864,477.171478 
	C553.864197,478.690125 554.367981,480.691589 555.651123,481.655212 
	C575.980530,496.922089 595.796387,512.981262 616.956482,527.008667 
	C650.863647,549.486389 686.701904,568.679810 724.360291,584.266296 
	C736.967834,589.484375 749.746094,594.289185 762.424561,599.337769 
	C763.609497,599.809570 764.637085,600.676514 765.868896,601.679993 
	C738.979126,602.000000 711.958191,602.000000 684.468628,602.000000 
	C682.747498,600.685242 681.732300,598.873657 680.201111,598.142456 
	C673.834961,595.102295 667.171448,592.668884 660.879333,589.493225 
	C649.113647,583.555359 637.400085,577.487244 625.923523,571.014587 
	C619.759705,567.538208 614.179016,563.039856 608.254395,559.124817 
	C597.381897,551.940308 586.510498,544.750671 575.525574,537.740417 
	C563.776428,530.242493 553.084595,521.448547 542.722107,512.168091 
	C533.510376,503.918274 523.893066,496.123047 514.607666,487.953369 
	C508.358734,482.455231 502.371918,476.658905 496.275085,470.988159 
	C489.549042,464.732147 482.807983,458.491852 476.133667,452.181061 
	C475.062195,451.167908 474.515961,449.529236 473.356201,448.695160 
	C471.349731,447.252136 469.052979,446.212708 466.402863,444.540100 
	C465.927704,430.653931 465.927704,417.231628 465.927704,403.839691 
	C470.389008,403.839691 474.195648,403.839691 478.073425,404.188904 
	C479.738953,406.834229 481.081299,409.366272 482.971588,411.385345 
	C490.890259,419.843475 498.829773,428.291687 507.033081,436.471313 
	C516.750061,446.160309 526.699341,455.619019 536.683716,465.033539 
	C537.870483,466.152679 539.909851,466.367676 541.645508,467.433960 
	C541.880493,476.881714 541.880554,476.879089 551.011169,477.018585 
	C551.674011,477.028717 552.335632,477.118622 552.997864,477.171478 
z"/>
<path fill="#5B409E" opacity="1.000000" stroke="none" 
	d="
M449.997192,105.815681 
	C448.503082,100.233444 446.849487,94.688087 445.547943,89.061310 
	C442.821686,77.275490 439.988647,65.501617 437.758362,53.617935 
	C436.049286,44.511105 435.035492,35.261364 434.013000,26.041855 
	C433.123444,18.020979 432.654724,9.953431 432.000000,1.453255 
	C458.687561,1.000000 485.375122,1.000000 512.531372,1.000000 
	C514.746338,13.619307 515.973022,26.337954 518.362183,38.834362 
	C521.840332,57.026745 526.036377,75.086586 530.203735,93.138901 
	C531.158325,97.273880 533.243042,101.147949 534.435974,105.542633 
	C506.041962,105.900673 478.019562,105.858177 449.997192,105.815681 
z"/>
<path fill="#FEFEFE" opacity="1.000000" stroke="none" 
	d="
M301.419128,422.542206 
	C301.436340,437.962036 301.345306,452.922668 301.275146,467.883362 
	C301.238312,475.739563 300.801697,475.637024 293.197449,476.318726 
	C286.260529,476.940613 282.303955,474.317535 278.383575,468.722229 
	C264.559814,448.992432 250.118469,429.695312 235.642944,410.048828 
	C231.633926,404.604828 227.743210,399.442993 224.246384,394.026855 
	C223.229340,392.451599 222.570099,389.852509 223.179413,388.276642 
	C223.647659,387.065521 226.300674,386.446442 228.090103,386.042328 
	C236.204056,384.209991 241.706604,387.547211 245.865845,394.561371 
	C248.866745,399.622101 252.791428,404.135010 256.692932,409.361969 
	C258.025177,410.962341 258.968567,412.093018 259.911957,413.223663 
	C262.298767,416.599152 264.685577,419.974670 267.465118,423.874176 
	C270.331146,427.673584 272.804443,430.948975 275.277740,434.224365 
	C277.638733,437.525146 279.999725,440.825958 282.360687,444.126740 
	C282.759918,444.038452 283.159149,443.950195 283.558380,443.861908 
	C283.558380,439.549011 283.558380,435.236145 283.515076,430.466827 
	C283.513245,417.870361 283.540039,405.730255 283.601562,393.590332 
	C283.639648,386.074005 283.722595,386.013000 290.999756,385.998901 
	C292.330383,385.996338 293.667999,386.087341 294.990326,385.982697 
	C299.481445,385.627289 301.340057,387.717133 301.300720,392.145355 
	C301.212036,402.123718 301.302216,412.103699 301.419128,422.542206 
z"/>
<path fill="#FCFCFD" opacity="1.000000" stroke="none" 
	d="
M187.323822,476.676270 
	C186.350220,476.740509 185.694977,476.551758 185.040512,476.554504 
	C171.952850,476.609192 174.221771,476.407684 173.996124,464.929260 
	C173.937195,461.931000 173.973434,458.930908 173.897461,455.467926 
	C173.884979,446.209229 174.056168,437.412872 173.950607,428.619812 
	C173.894089,423.913269 175.965881,422.136963 180.565750,422.102386 
	C191.677643,422.018921 191.887451,422.112701 191.886246,433.385162 
	C191.884949,445.504333 191.861053,457.623566 191.897629,469.742615 
	C191.907318,472.953766 191.498093,475.785431 187.323822,476.676270 
z"/>
<path fill="#FCFCFD" opacity="1.000000" stroke="none" 
	d="
M240.093079,453.204376 
	C240.092087,458.996246 239.948059,464.319397 240.133636,469.631012 
	C240.293533,474.207672 238.615051,476.258362 233.774765,476.252502 
	C222.239914,476.238556 222.240173,476.396423 222.247726,464.747803 
	C222.250626,460.260620 222.304352,455.772644 222.236893,451.286499 
	C222.172470,447.002136 223.912811,444.654480 228.476364,444.976868 
	C229.799271,445.070343 231.134430,444.987610 232.463943,444.991058 
	C239.550140,445.009460 240.001740,445.468231 240.093079,453.204376 
z"/>
<path fill="#FCFCFD" opacity="1.000000" stroke="none" 
	d="
M191.885880,401.007935 
	C191.886215,404.665375 191.837997,407.831268 191.899170,410.994995 
	C191.978195,415.082764 190.198944,417.296326 185.947128,417.168701 
	C185.780716,417.163696 185.613892,417.166138 185.447433,417.170929 
	C174.185089,417.494781 173.995300,417.310822 173.995300,406.064301 
	C173.995316,401.400208 174.057999,396.735016 173.976700,392.072357 
	C173.905304,387.977997 175.570480,386.022522 179.895844,385.936462 
	C191.840515,385.698853 191.895752,385.645660 191.888275,397.517090 
	C191.887650,398.516541 191.886749,399.515991 191.885880,401.007935 
z"/>
<path fill="#513497" opacity="1.000000" stroke="none" 
	d="
M275.531738,434.022888 
	C272.804443,430.948975 270.331146,427.673584 267.732971,424.107666 
	C268.133636,423.464203 268.659119,423.111298 269.184631,422.758392 
	C271.385010,426.446075 273.585358,430.133728 275.531738,434.022888 
z"/>
<path fill="#513497" opacity="1.000000" stroke="none" 
	d="
M259.928162,412.830811 
	C258.968567,412.093018 258.025177,410.962341 256.998108,409.524841 
	C260.870453,407.519196 259.630524,410.709625 259.928162,412.830811 
z"/>
<path fill="#F7F6FB" opacity="1.000000" stroke="none" 
	d="
M449.532776,105.881340 
	C478.019562,105.858177 506.041962,105.900673 534.528809,105.880081 
	C557.373230,105.816994 579.753113,105.816994 602.770935,105.816994 
	C602.770935,130.669144 602.770935,154.875137 602.872375,179.540375 
	C602.905945,201.693542 602.838135,223.387451 602.872253,245.540497 
	C602.905945,267.026917 602.837646,288.054230 602.772339,310.000122 
	C602.753418,322.977875 602.728149,335.037079 602.713135,347.096252 
	C602.710693,349.067230 603.111328,351.277069 599.998840,351.153992 
	C590.641296,351.104919 581.283752,351.055878 570.998718,351.008423 
	C544.380066,351.057251 518.688843,351.104492 492.533936,351.080627 
	C468.712494,351.056671 445.354797,351.103729 421.997101,351.150818 
	C400.727722,351.150818 379.458374,351.150818 357.689362,351.150818 
	C357.689362,299.690735 357.689362,248.793854 357.601471,197.433167 
	C357.592316,168.697098 357.671356,140.424835 357.749084,112.152580 
	C357.754486,110.196472 357.749786,108.240341 357.749786,105.946999 
	C388.547089,105.946999 418.807739,105.946999 449.532776,105.881340 
M364.496399,112.179314 
	C364.100586,112.327431 363.981110,112.597710 363.953125,113.912674 
	C363.953125,190.783173 363.953125,267.653687 363.953125,344.848724 
	C366.467010,344.848724 368.278015,344.848907 370.088989,344.848694 
	C403.569916,344.845062 437.050873,344.860199 470.531769,344.828796 
	C484.685852,344.815521 498.839844,344.704376 513.918030,344.807556 
	C541.254761,344.807556 568.591492,344.807556 596.422058,344.807556 
	C596.422058,339.856415 596.437927,335.563721 596.419373,331.271179 
	C596.323669,309.179688 596.219177,287.088196 596.352234,264.084656 
	C596.352234,213.575912 596.352234,163.067169 596.352234,112.279427 
	C569.150146,112.279427 542.570435,112.279427 515.064575,112.135712 
	C502.110718,112.123131 489.156830,112.083740 476.203003,112.103600 
	C450.133362,112.143578 424.063812,112.215836 397.067291,112.131500 
	C386.374084,112.174141 375.680908,112.216789 364.496399,112.179314 
z"/>
<path fill="#573B9B" opacity="1.000000" stroke="none" 
	d="
M422.076538,351.499817 
	C445.354797,351.103729 468.712494,351.056671 492.613525,351.421570 
	C496.156403,356.318512 498.916595,360.988647 502.209625,365.246643 
	C507.623901,372.247589 513.383484,378.981506 518.544495,385.895996 
	C516.598877,385.972717 515.073364,385.788177 513.621460,386.035736 
	C511.476166,386.401550 507.607147,386.995239 507.578766,387.630585 
	C507.462677,390.230865 507.989380,393.186707 509.269867,395.451782 
	C511.648926,399.660156 514.918518,403.355194 517.459717,407.484070 
	C521.665710,414.317810 526.135376,420.053497 535.632385,418.137756 
	C539.145386,417.429138 541.990112,416.746399 543.466064,413.011932 
	C546.685425,415.395813 549.540833,417.769318 552.265442,420.469391 
	C551.828613,421.181183 551.512146,421.558624 551.218140,421.952728 
	C546.177124,428.709534 540.562378,434.946320 541.612671,444.614136 
	C542.413757,451.987518 541.631775,459.532898 541.554077,467.001770 
	C539.909851,466.367676 537.870483,466.152679 536.683716,465.033539 
	C526.699341,455.619019 516.750061,446.160309 507.033081,436.471313 
	C498.829773,428.291687 490.890259,419.843475 482.971588,411.385345 
	C481.081299,409.366272 479.738953,406.834229 478.520386,404.063232 
	C482.046295,403.559540 485.204468,403.375366 488.344543,403.538818 
	C492.882507,403.775085 494.653656,401.466370 494.664368,397.269928 
	C494.669037,395.445923 494.788696,393.608826 494.616028,391.800568 
	C494.254669,388.015808 492.543182,385.873199 488.257660,385.938202 
	C476.652130,386.114258 465.041809,385.956451 453.434387,386.051208 
	C451.707001,386.065338 449.984924,386.728424 448.260376,387.091278 
	C446.999298,386.040497 445.496613,385.176605 444.516083,383.908875 
	C437.711853,375.111603 430.954163,366.276215 424.345154,357.332153 
	C423.213837,355.801086 422.865845,353.691254 422.076538,351.499817 
z"/>
<path fill="#FCFCFD" opacity="1.000000" stroke="none" 
	d="
M400.953339,458.578979 
	C395.695007,471.197540 385.770355,476.169159 373.150513,477.016052 
	C369.551331,477.257599 367.905579,475.558136 367.912354,472.051025 
	C367.915894,470.221924 368.033630,468.382477 367.882172,466.565826 
	C367.523254,462.261383 369.337341,460.155334 373.710815,459.648956 
	C376.103088,459.371918 378.532898,458.373260 380.674774,457.203735 
	C384.759674,454.973389 386.343689,446.935760 379.958038,444.968506 
	C371.103973,442.240845 362.120789,439.881561 353.408691,436.761902 
	C347.698517,434.717194 341.940399,432.234406 336.968567,428.830658 
	C329.065979,423.420410 326.659821,415.101746 329.270935,405.928955 
	C331.803345,397.032501 336.794342,390.385895 346.644958,387.939941 
	C347.322693,387.751587 347.662445,387.761139 347.977753,387.678040 
	C359.712799,384.585602 360.571228,385.338898 360.270782,397.400970 
	C360.181183,400.996155 358.903381,403.030182 355.267029,403.549622 
	C353.975067,403.734192 352.346191,403.954681 351.557312,404.799530 
	C349.524933,406.976044 346.985901,409.322144 346.423767,411.976257 
	C346.110687,413.454681 348.986847,416.597290 351.046021,417.401398 
	C356.887512,419.682434 363.064758,421.092499 369.078613,422.946655 
	C374.940430,424.753906 380.944580,426.260406 386.567566,428.649078 
	C399.658295,434.210205 404.471741,444.475250 400.953339,458.578979 
z"/>
<path fill="#FEFEFE" opacity="1.000000" stroke="none" 
	d="
M448.213318,387.553040 
	C449.984924,386.728424 451.707001,386.065338 453.434387,386.051208 
	C465.041809,385.956451 476.652130,386.114258 488.257660,385.938202 
	C492.543182,385.873199 494.254669,388.015808 494.616028,391.800568 
	C494.788696,393.608826 494.669037,395.445923 494.664368,397.269928 
	C494.653656,401.466370 492.882507,403.775085 488.344543,403.538818 
	C485.204468,403.375366 482.046295,403.559540 478.449249,403.714020 
	C474.195648,403.839691 470.389008,403.839691 465.927704,403.839691 
	C465.927704,417.231628 465.927704,430.653931 466.011780,444.538391 
	C466.028992,453.302856 465.976562,461.605347 465.890350,469.907501 
	C465.832001,475.525787 464.416595,477.052002 458.912018,476.978455 
	C446.930206,476.818298 447.890106,478.918854 447.865234,466.254059 
	C447.818573,442.494781 447.839508,418.735352 447.860321,394.975983 
	C447.862366,392.655518 448.059601,390.335205 448.213318,387.553040 
z"/>
<path fill="#FCFCFD" opacity="1.000000" stroke="none" 
	d="
M399.527649,409.483521 
	C400.279266,415.985779 399.116089,417.371796 393.146393,417.502411 
	C391.155823,417.545990 388.974548,417.994659 387.222076,417.341553 
	C385.303284,416.626465 382.731964,415.138367 382.278503,413.484497 
	C380.869812,408.346466 377.406067,405.853027 372.889069,404.061432 
	C368.066864,402.148834 365.600372,391.539764 369.197327,387.745453 
	C370.062103,386.833160 371.821075,386.247620 373.110199,386.339050 
	C385.903351,387.245819 396.740753,396.695404 399.527649,409.483521 
z"/>
<path fill="#FCFCFD" opacity="1.000000" stroke="none" 
	d="
M423.731567,403.471375 
	C420.025665,403.010284 418.878143,400.955780 418.981934,397.874786 
	C419.043274,396.053833 419.075897,394.224487 418.975464,392.406982 
	C418.718414,387.754791 420.808441,385.592407 425.500763,385.976837 
	C426.653107,386.071198 427.819824,385.990417 428.979919,385.990356 
	C440.146088,385.989838 442.420258,388.631683 439.890991,399.613983 
	C439.528015,401.189972 436.888794,403.015900 435.069397,403.317627 
	C431.520386,403.906219 427.806152,403.498352 423.731567,403.471375 
z"/>
<path fill="#FCFCFD" opacity="1.000000" stroke="none" 
	d="
M340.360870,472.043762 
	C334.233490,467.718048 329.397980,462.726807 327.119385,455.302155 
	C325.996948,443.640625 325.996979,443.760406 337.603241,443.757904 
	C341.567871,443.757050 343.778564,444.967987 344.474457,449.104370 
	C345.415588,454.698364 349.479340,457.393890 354.581238,458.909210 
	C359.891693,460.486481 362.914459,471.918152 358.821350,475.582703 
	C357.711823,476.575989 355.347809,476.980286 353.850891,476.576050 
	C349.395233,475.372803 345.084442,473.632996 340.360870,472.043762 
z"/>
<path fill="#5B409E" opacity="1.000000" stroke="none" 
	d="
M600.085876,351.479492 
	C603.111328,351.277069 602.710693,349.067230 602.713135,347.096252 
	C602.728149,335.037079 602.753418,322.977875 602.875000,310.459106 
	C605.028259,311.266479 607.401062,312.207062 609.084045,313.852966 
	C620.574402,325.090393 631.506714,336.934631 643.434204,347.678223 
	C654.231812,357.404144 665.930664,366.155396 677.483887,375.007874 
	C686.179932,381.671143 695.314880,387.759308 704.144226,394.253326 
	C705.369812,395.154755 705.962158,396.917206 706.798462,398.941254 
	C699.068115,407.898590 695.551453,417.892944 694.768005,429.001160 
	C691.017212,421.739197 682.874329,419.732452 677.274292,414.581757 
	C672.631409,410.311279 666.057007,408.222778 660.838379,404.471832 
	C656.173645,401.118988 652.338684,396.636475 647.870850,392.978241 
	C642.851196,388.868225 637.485535,385.183807 632.358582,381.200897 
	C628.277466,378.030487 625.392639,373.635620 619.930420,371.805206 
	C616.766235,370.744873 614.523499,366.857056 611.934692,364.175446 
	C607.982910,360.082062 604.090515,355.931366 600.085876,351.479492 
z"/>
<path fill="#FCFCFD" opacity="1.000000" stroke="none" 
	d="
M694.831299,429.461151 
	C695.551453,417.892944 699.068115,407.898590 706.871094,399.287354 
	C713.593811,393.118195 720.692017,388.195618 729.573730,386.386719 
	C734.206360,385.443207 736.550293,387.039429 736.846191,391.772369 
	C736.959839,393.591125 736.779419,395.428101 736.890930,397.247101 
	C737.120239,400.985474 735.458130,402.941925 731.818298,404.012573 
	C720.639832,407.300751 713.777161,416.291718 713.045532,428.589844 
	C713.071472,431.045319 713.040955,433.088379 713.033447,435.847046 
	C713.239136,437.093536 713.421814,437.624359 713.604492,438.155212 
	C715.419006,448.426056 721.334106,455.130127 731.213867,458.369690 
	C736.452515,460.087463 739.483154,471.407074 735.445984,475.174713 
	C734.298157,476.245972 731.768555,476.530029 730.060364,476.200836 
	C711.743958,472.670807 695.205383,456.486084 694.982056,434.903839 
	C694.964844,433.242798 694.924377,431.582031 694.831299,429.461151 
z"/>
<path fill="#FCFCFD" opacity="1.000000" stroke="none" 
	d="
M780.130615,455.655792 
	C772.907837,466.379028 763.699219,473.829773 751.006470,476.308716 
	C746.612854,477.166779 744.617004,475.837677 744.302979,471.508240 
	C744.122620,469.022156 743.704285,466.329468 744.437134,464.068176 
	C745.084839,462.069763 746.885925,460.091827 748.700989,458.904633 
	C751.719055,456.930573 755.155945,455.596771 758.648071,453.708740 
	C768.115417,445.658844 769.635498,435.291290 767.652283,424.389587 
	C765.756531,413.968903 759.391663,406.784241 748.877808,403.885681 
	C745.652832,402.996582 744.326843,401.065918 744.216858,397.767487 
	C743.768982,384.341949 744.899719,384.227631 756.999512,388.237305 
	C774.473022,394.027802 785.803284,410.843445 786.077332,429.415070 
	C786.213013,438.610229 784.841431,447.288788 780.130615,455.655792 
z"/>
<path fill="#593E9C" opacity="1.000000" stroke="none" 
	d="
M518.997498,385.828003 
	C513.383484,378.981506 507.623901,372.247589 502.209625,365.246643 
	C498.916595,360.988647 496.156403,356.318512 493.077271,351.492615 
	C518.688843,351.104492 544.380066,351.057251 570.535034,351.081421 
	C574.058167,355.100311 576.875977,359.268646 580.235168,362.941956 
	C584.934937,368.081329 589.789062,373.137817 595.033875,377.705261 
	C601.158264,383.038696 607.774414,387.807404 614.579346,393.375153 
	C614.934631,419.286926 614.887817,444.644653 614.841003,470.002411 
	C610.924744,467.431610 606.926086,464.976105 603.118225,462.253662 
	C600.051758,460.061371 597.201355,457.564362 594.280823,455.171112 
	C586.027649,448.407990 577.795715,441.618896 569.530701,434.870331 
	C568.667725,434.165680 567.639465,433.663330 566.417419,432.699768 
	C566.900513,431.235748 567.650513,430.136597 568.408081,429.042633 
	C576.458557,417.417694 584.496948,405.784332 592.571838,394.176361 
	C594.378174,391.579620 595.277893,388.955750 592.268372,386.773743 
	C588.424194,383.986572 576.019470,386.450378 573.291565,390.341949 
	C566.327759,400.276459 559.361511,410.209290 552.396240,420.142822 
	C549.540833,417.769318 546.685425,415.395813 543.355713,412.673828 
	C538.268066,405.414642 533.494995,398.603485 529.104553,391.554016 
	C526.670837,387.646301 523.725769,385.345093 518.997498,385.828003 
z"/>
<path fill="#FCFCFD" opacity="1.000000" stroke="none" 
	d="
M614.912842,470.407410 
	C614.887817,444.644653 614.934631,419.286926 614.910889,393.465271 
	C615.363892,386.547363 615.925110,386.025299 622.387939,385.992828 
	C623.553711,385.986969 624.719543,385.979248 625.885193,385.993469 
	C631.424194,386.061005 632.892273,387.485535 632.907654,393.114136 
	C632.952209,409.434570 632.940857,425.755127 633.031616,442.538391 
	C633.047241,450.275513 632.946289,457.549866 632.926636,464.824402 
	C632.896301,476.066284 632.919861,476.066345 621.439819,476.308777 
	C617.225830,476.437592 614.516052,475.335144 614.912842,470.407410 
z"/>
<path fill="#FCFCFD" opacity="1.000000" stroke="none" 
	d="
M677.101685,471.549072 
	C676.874756,475.100952 675.019104,476.205109 672.080627,476.187988 
	C663.092896,476.135590 654.104736,476.160736 645.116699,476.153931 
	C641.677795,476.151337 640.160889,474.676117 640.260071,470.999298 
	C640.599792,458.400421 638.071106,458.776581 652.088562,458.818817 
	C652.754089,458.820831 653.419678,458.793549 654.541870,458.692566 
	C659.988892,458.678192 664.979065,458.771423 669.969727,458.819183 
	C676.462036,458.881317 676.991272,459.413849 677.007202,466.100647 
	C677.011230,467.765991 677.023560,469.431305 677.101685,471.549072 
z"/>
<path fill="#5D439E" opacity="1.000000" stroke="none" 
	d="
M713.792480,437.986511 
	C713.421814,437.624359 713.239136,437.093536 713.115723,436.279541 
	C713.443481,436.603546 713.711914,437.210693 713.792480,437.986511 
z"/>
<path fill="#FCFCFD" opacity="1.000000" stroke="none" 
	d="
M552.265442,420.469421 
	C559.361511,410.209290 566.327759,400.276459 573.291565,390.341949 
	C576.019470,386.450378 588.424194,383.986572 592.268372,386.773743 
	C595.277893,388.955750 594.378174,391.579620 592.571838,394.176361 
	C584.496948,405.784332 576.458557,417.417694 568.408081,429.042633 
	C567.650513,430.136597 566.900513,431.235748 566.064819,432.663544 
	C561.184631,437.558441 559.222046,442.976379 559.735718,449.724640 
	C560.261108,456.626312 559.811768,463.599457 559.865173,470.540741 
	C559.897095,474.698029 558.233032,477.133087 553.392334,477.100830 
	C552.335632,477.118622 551.674011,477.028717 551.011169,477.018585 
	C541.880554,476.879089 541.880493,476.881714 541.645569,467.433960 
	C541.631775,459.532898 542.413757,451.987518 541.612671,444.614136 
	C540.562378,434.946320 546.177124,428.709534 551.218140,421.952728 
	C551.512146,421.558624 551.828613,421.181183 552.265442,420.469421 
z"/>
<path fill="#5B409E" opacity="1.000000" stroke="none" 
	d="
M596.117737,264.996704 
	C596.219177,287.088196 596.323669,309.179688 596.419373,331.271179 
	C596.437927,335.563721 596.422058,339.856415 596.422058,344.807556 
	C568.591492,344.807556 541.254761,344.807556 513.419800,344.382416 
	C506.910553,335.281158 500.918274,326.591919 494.882599,317.932953 
	C489.817261,310.666077 484.701385,303.434448 479.759399,295.910858 
	C500.445587,273.429169 495.020111,237.879471 467.931915,223.167511 
	C457.177063,217.326401 445.747162,216.840607 433.991699,218.617905 
	C433.284241,214.983124 433.060547,211.564285 431.805725,208.578812 
	C427.029205,197.214691 421.527435,186.143631 417.047882,174.669800 
	C412.775513,163.726746 409.199860,152.491379 405.764343,141.248108 
	C402.844147,131.691223 400.559875,121.940002 397.994202,112.274773 
	C424.063812,112.215836 450.133362,112.143578 476.203003,112.103600 
	C489.156830,112.083740 502.110718,112.123131 515.528381,112.646988 
	C516.234375,116.628922 515.849731,120.292686 516.847290,123.530624 
	C519.028259,130.609680 521.693054,137.563919 524.560120,144.401459 
	C528.517456,153.839264 532.657166,163.211426 537.063538,172.447205 
	C541.614136,181.985291 546.309814,191.475159 551.440186,200.709351 
	C556.024841,208.961121 561.180603,216.904907 566.286743,224.854645 
	C570.373352,231.217056 574.738708,237.401611 579.026550,243.633286 
	C583.146790,249.621246 587.229553,255.639938 591.547180,261.483765 
	C592.644836,262.969391 594.571777,263.842285 596.117737,264.996704 
z"/>
<path fill="#573B9B" opacity="1.000000" stroke="none" 
	d="
M479.607849,296.187256 
	C484.701385,303.434448 489.817261,310.666077 494.882599,317.932953 
	C500.918274,326.591919 506.910553,335.281158 512.957764,344.297485 
	C498.839844,344.704376 484.685852,344.815521 470.531769,344.828796 
	C437.050873,344.860199 403.569916,344.845062 370.088989,344.848694 
	C368.278015,344.848907 366.467010,344.848724 363.953125,344.848724 
	C363.953125,267.653687 363.953125,190.783173 364.205414,113.351929 
	C364.662140,112.641602 364.838806,112.464355 364.987701,112.259430 
	C375.680908,112.216789 386.374084,112.174141 397.530762,112.203140 
	C400.559875,121.940002 402.844147,131.691223 405.764343,141.248108 
	C409.199860,152.491379 412.775513,163.726746 417.047882,174.669800 
	C421.527435,186.143631 427.029205,197.214691 431.805725,208.578812 
	C433.060547,211.564285 433.284241,214.983124 433.702301,218.836823 
	C425.521576,221.931793 418.609528,225.648819 412.733582,231.886398 
	C390.935303,255.026260 397.926666,293.125732 427.038177,305.921387 
	C446.452515,314.454742 464.140106,310.540833 479.607849,296.187256 
z"/>
<path fill="#5F45A0" opacity="1.000000" stroke="none" 
	d="
M596.234985,264.540680 
	C594.571777,263.842285 592.644836,262.969391 591.547180,261.483765 
	C587.229553,255.639938 583.146790,249.621246 579.026550,243.633286 
	C574.738708,237.401611 570.373352,231.217056 566.286743,224.854645 
	C561.180603,216.904907 556.024841,208.961121 551.440186,200.709351 
	C546.309814,191.475159 541.614136,181.985291 537.063538,172.447205 
	C532.657166,163.211426 528.517456,153.839264 524.560120,144.401459 
	C521.693054,137.563919 519.028259,130.609680 516.847290,123.530624 
	C515.849731,120.292686 516.234375,116.628922 515.991455,112.718849 
	C542.570435,112.279427 569.150146,112.279427 596.352234,112.279427 
	C596.352234,163.067169 596.352234,213.575912 596.234985,264.540680 
M556.845581,171.653351 
	C566.571472,166.144348 569.424683,155.499893 563.380310,147.274368 
	C558.409607,140.509964 549.247192,138.612595 542.012756,142.849487 
	C534.984985,146.965363 532.136780,155.663864 535.345398,163.211700 
	C538.736633,171.189072 546.867615,174.607605 556.845581,171.653351 
z"/>
<path fill="#5F45A0" opacity="1.000000" stroke="none" 
	d="
M364.742065,112.219376 
	C364.838806,112.464355 364.662140,112.641602 364.297852,112.890663 
	C363.981110,112.597710 364.100586,112.327431 364.742065,112.219376 
z"/>
<path fill="#FCFCFD" opacity="1.000000" stroke="none" 
	d="
M518.544495,385.895996 
	C523.725769,385.345093 526.670837,387.646301 529.104553,391.554016 
	C533.494995,398.603485 538.268066,405.414642 542.991699,412.663452 
	C541.990112,416.746399 539.145386,417.429138 535.632385,418.137756 
	C526.135376,420.053497 521.665710,414.317810 517.459717,407.484070 
	C514.918518,403.355194 511.648926,399.660156 509.269867,395.451782 
	C507.989380,393.186707 507.462677,390.230865 507.578766,387.630585 
	C507.607147,386.995239 511.476166,386.401550 513.621460,386.035736 
	C515.073364,385.788177 516.598877,385.972717 518.544495,385.895996 
z"/>
<path fill="#FEFEFE" opacity="1.000000" stroke="none" 
	d="
M479.759399,295.910858 
	C464.140106,310.540833 446.452515,314.454742 427.038177,305.921387 
	C397.926666,293.125732 390.935303,255.026260 412.733582,231.886398 
	C418.609528,225.648819 425.521576,221.931793 433.712524,219.251770 
	C445.747162,216.840607 457.177063,217.326401 467.931915,223.167511 
	C495.020111,237.879471 500.445587,273.429169 479.759399,295.910858 
z"/>
<path fill="#FCFCFD" opacity="1.000000" stroke="none" 
	d="
M556.478516,171.797928 
	C546.867615,174.607605 538.736633,171.189072 535.345398,163.211700 
	C532.136780,155.663864 534.984985,146.965363 542.012756,142.849487 
	C549.247192,138.612595 558.409607,140.509964 563.380310,147.274368 
	C569.424683,155.499893 566.571472,166.144348 556.478516,171.797928 
z"/>
</svg>