<svg version="1.1" id="Layer_1" xmlns="http://www.w3.org/2000/svg" xmlns:xlink="http://www.w3.org/1999/xlink" x="0px" y="0px"
	 width="100%" viewBox="0 0 615 406" enable-background="new 0 0 615 406" xml:space="preserve">
<path fill="#000000" opacity="1.000000" stroke="none" 
	d="
M376.000000,407.000000 
	C250.697205,407.000000 125.894424,407.000000 1.045816,407.000000 
	C1.045816,271.730347 1.045816,136.460648 1.045816,1.095485 
	C205.886154,1.095485 410.772369,1.095485 615.829285,1.095485 
	C615.829285,136.333160 615.829285,271.666565 615.829285,407.000000 
	C536.127258,407.000000 456.313629,407.000000 376.000000,407.000000 
M30.416222,285.519470 
	C30.282629,292.580963 30.088055,299.642303 30.065701,306.704132 
	C30.061102,308.156860 30.699615,309.611664 31.619984,311.563232 
	C34.685593,312.002533 37.744759,312.741608 40.818386,312.807617 
	C44.952606,312.896423 47.151066,310.797913 47.016747,306.350006 
	C46.840786,300.523071 47.111870,294.681244 46.877621,288.858429 
	C46.812767,287.246460 45.669888,284.327667 44.965584,284.310547 
	C40.361965,284.198456 35.742947,284.719055 30.416222,285.519470 
M417.029388,166.071167 
	C417.080170,154.714844 417.130951,143.358521 417.895355,131.523758 
	C417.930084,107.932617 417.972229,84.341476 417.979492,60.750324 
	C417.979889,59.452736 417.689819,58.155056 417.542603,55.985550 
	C417.580597,49.511627 417.650360,43.037678 417.644043,36.563797 
	C417.640533,32.954258 416.377075,30.898092 412.127411,31.130718 
	C405.991913,31.466572 399.824310,31.230082 393.670441,31.211746 
	C369.869995,31.140827 346.069275,30.967279 322.269196,31.031830 
	C313.847290,31.054672 305.427826,31.906355 297.005676,31.936401 
	C265.024048,32.050495 233.038010,32.233109 201.063248,31.751623 
	C195.358505,31.665720 194.950867,33.267735 194.959290,37.947777 
	C195.084732,107.608055 195.048248,177.268616 195.050018,246.929123 
	C195.050064,248.718048 195.050034,250.506973 195.050034,252.382782 
	C269.440155,252.382782 343.376434,252.382782 417.181488,252.382782 
	C417.181488,249.164032 417.181488,246.583282 417.895203,243.524063 
	C417.929840,218.885483 417.972809,194.246902 417.964478,169.608337 
	C417.964172,168.737823 417.454315,167.867477 417.029388,166.071167 
M92.870224,315.659515 
	C93.246910,316.389404 93.530289,317.188721 94.014000,317.838989 
	C104.148972,331.463531 114.812248,344.733978 124.221504,358.841156 
	C128.222595,364.839935 132.542725,366.430359 138.967422,365.957703 
	C144.224564,365.570923 145.930984,364.132782 145.933502,358.758270 
	C145.943436,337.608734 145.899612,316.459076 145.951279,295.309662 
	C145.984604,281.667389 145.622498,283.849670 134.445221,283.600128 
	C129.883209,283.498291 128.227615,285.320801 128.292542,289.790100 
	C128.456985,301.111694 128.381744,312.437531 128.317047,323.761200 
	C128.298019,327.092621 127.993225,330.422363 127.795624,334.208282 
	C126.835846,333.414642 126.378067,333.166168 126.098839,332.786407 
	C116.110031,319.202057 105.587013,305.964111 96.400879,291.855896 
	C91.951454,285.022430 87.049004,282.379425 79.514702,283.717773 
	C77.597160,284.058411 74.605568,284.591034 74.200531,285.760406 
	C73.577477,287.559174 74.276192,290.256775 75.294762,292.081421 
	C76.884109,294.928558 79.247330,297.336853 81.217232,299.979889 
	C84.960800,305.002716 88.658112,310.059998 92.870224,315.659515 
M233.772186,330.942749 
	C228.464447,323.684967 220.842911,320.408905 212.447723,318.265381 
	C205.504974,316.492706 198.595596,314.537445 191.792740,312.295105 
	C189.199554,311.440338 185.735474,310.540710 186.556549,306.404785 
	C187.286606,302.727386 189.575912,301.214844 193.363419,300.530792 
	C195.440674,300.155701 198.452606,297.611176 198.668655,295.766754 
	C199.154785,291.616364 198.161240,287.292694 197.775482,283.100159 
	C194.881348,283.363281 193.424484,283.496124 191.967560,283.628174 
	C183.190048,284.423645 175.772522,288.650879 171.499405,295.824219 
	C164.078842,308.281250 170.845367,323.335815 185.011353,327.892395 
	C194.318085,330.885986 203.720047,333.583527 213.079407,336.413483 
	C216.228302,337.365631 219.804626,339.159180 218.896286,342.482819 
	C218.178268,345.110107 214.778488,347.178497 212.245773,349.058899 
	C211.064514,349.935944 208.919525,349.427002 207.565796,350.181885 
	C205.862946,351.131500 203.464310,352.584961 203.256256,354.083466 
	C202.873245,356.842102 203.477936,359.935364 204.451416,362.604523 
	C204.966644,364.017242 207.070572,365.693939 208.547318,365.784607 
	C227.311813,366.936707 242.354889,351.694946 233.772186,330.942749 
M293.557892,312.514038 
	C293.557892,308.764771 293.557892,305.015533 293.557892,301.010956 
	C298.805817,301.010956 303.104156,301.010529 307.402527,301.011047 
	C319.806854,301.012543 319.808777,300.880981 319.708099,288.592285 
	C319.675232,284.578705 318.115204,283.512634 314.324463,283.590240 
	C304.009094,283.801453 293.686615,283.675446 283.366974,283.665771 
	C276.582275,283.659424 276.031097,284.168610 276.027405,290.941193 
	C276.015900,312.080200 276.023926,333.219208 276.023773,354.358215 
	C276.023712,365.955109 276.027710,365.751282 287.589874,366.006744 
	C292.283203,366.110443 293.660706,364.437500 293.608246,359.947144 
	C293.427490,344.469604 293.550537,328.988556 293.557892,312.514038 
M537.962830,295.859711 
	C537.957947,293.863831 538.092407,291.855988 537.921570,289.874390 
	C537.453186,284.440308 535.613892,282.898682 530.526672,283.619080 
	C522.388733,284.771454 515.153076,288.686371 509.889404,294.375031 
	C500.815399,304.181671 497.428497,316.119781 498.791016,329.935181 
	C500.497620,347.238892 511.872986,361.318848 528.488770,365.053101 
	C534.780212,366.467010 536.307251,366.133026 537.795166,361.447723 
	C539.072083,357.426819 535.858154,349.702545 532.696716,348.307770 
	C529.457031,346.878418 526.067444,345.392578 523.392517,343.155457 
	C516.103577,337.059387 515.869202,328.676971 516.469238,319.984711 
	C517.089539,310.998779 523.355652,304.161407 531.116943,300.873566 
	C533.516663,299.856995 535.604309,298.103821 537.962830,295.859711 
M554.600891,364.024139 
	C557.271179,362.926636 560.161072,362.181122 562.576233,360.674622 
	C578.396729,350.806335 586.066162,330.330872 580.667358,312.625824 
	C576.003662,297.331451 565.781677,287.547302 550.401245,283.622437 
	C545.455322,282.360321 542.209106,284.522308 542.972046,289.159302 
	C543.345337,291.427612 542.632202,293.906372 543.167236,296.105865 
	C543.563538,297.734528 544.950256,300.058350 546.291626,300.370300 
	C555.578735,302.530121 560.818298,308.541870 563.391968,317.286377 
	C566.252869,327.006805 562.644287,344.604828 549.399597,347.419250 
	C544.422485,348.476837 541.978638,351.692657 543.000183,357.052673 
	C543.244873,358.336700 543.064880,359.709503 543.020081,361.039459 
	C542.883362,365.094971 545.253418,366.278809 548.752319,365.856873 
	C550.509827,365.644958 552.211914,364.973053 554.600891,364.024139 
M360.309326,336.618225 
	C360.308807,342.447479 360.292145,348.276825 360.311188,354.106018 
	C360.351105,366.329651 360.356903,366.247955 372.733765,365.956512 
	C376.565918,365.866241 378.035461,364.244293 377.973236,360.498505 
	C377.845978,352.839233 377.907562,345.176239 377.960175,337.515228 
	C377.968933,336.237000 377.933258,334.700897 378.581909,333.725250 
	C383.878723,325.758423 389.297668,317.871735 394.751007,310.010315 
	C399.184204,303.619537 403.853851,297.388733 408.156525,290.912842 
	C411.083588,286.507355 409.610168,284.031891 404.411957,283.992188 
	C401.580719,283.970551 398.736481,284.156525 395.921143,283.943756 
	C392.529083,283.687408 390.630554,285.099121 388.728058,287.953522 
	C382.455139,297.364868 375.336151,306.230774 369.369019,315.820709 
	C365.556580,321.947815 358.663361,326.954651 360.309326,336.618225 
M427.042267,352.467010 
	C426.916260,367.077850 426.014679,365.933258 437.629669,365.879486 
	C442.458618,365.857147 445.053802,362.883362 444.832336,357.988403 
	C444.735199,355.841431 444.639923,353.692017 444.635925,351.543518 
	C444.602203,333.310486 444.666199,315.076935 444.545471,296.844574 
	C444.456848,283.461761 444.352203,283.588989 432.330566,283.542480 
	C428.197601,283.526520 426.918823,284.977875 426.954773,289.100586 
	C427.136017,309.891632 427.040497,330.685150 427.042267,352.467010 
M46.974709,334.502930 
	C46.974728,331.845978 46.936035,329.188385 46.981438,326.532227 
	C47.181564,314.824493 47.001610,316.213776 36.507187,315.991241 
	C31.617853,315.887543 30.197756,317.902527 30.291588,322.506683 
	C30.511475,333.295959 30.436218,344.093567 30.334295,354.886475 
	C30.219202,367.073975 30.143955,365.808350 41.383698,365.951019 
	C45.381924,366.001801 47.091011,364.467560 47.020588,360.409882 
	C46.876541,352.109436 46.975643,343.804749 46.974709,334.502930 
M197.471359,350.278870 
	C195.795761,349.622406 194.159500,348.827942 192.436752,348.336914 
	C188.278717,347.151703 185.762848,344.619812 184.651291,340.353546 
	C183.302826,335.178131 177.618362,333.178406 170.698486,335.149902 
	C167.175919,336.153503 166.282211,339.770782 167.556885,345.028564 
	C170.519989,357.250793 179.286255,362.970367 190.542267,365.738678 
	C193.765640,366.531433 198.109680,366.941101 198.718262,362.132751 
	C199.176956,358.508636 198.213699,354.704559 197.471359,350.278870 
M362.677948,306.136658 
	C360.535614,302.818451 358.362152,299.519867 356.257111,296.178162 
	C351.138977,288.053253 345.712769,280.508179 334.200073,283.667633 
	C334.045532,283.710022 333.832733,283.608490 333.707794,283.680023 
	C332.465057,284.391602 330.635315,284.855286 330.154755,285.922089 
	C329.566223,287.228577 329.533447,289.406708 330.266815,290.577545 
	C333.100067,295.100769 336.896118,299.087616 339.290741,303.803741 
	C343.145447,311.395599 348.774139,314.175110 357.028839,312.981415 
	C360.880310,312.424469 363.380035,311.305908 362.677948,306.136658 
M450.346741,364.108429 
	C452.139221,364.712311 453.912994,365.760590 455.727661,365.836792 
	C461.189789,366.066223 466.667786,365.911835 472.139618,365.916687 
	C484.035278,365.927185 483.852356,365.926147 484.073181,354.077728 
	C484.150635,349.923492 482.309601,348.345856 478.731110,348.289246 
	C470.608337,348.160736 462.468109,347.997925 454.368347,348.448669 
	C452.591553,348.547516 449.770294,350.954315 449.499725,352.631989 
	C448.945374,356.069397 449.794037,359.733032 450.346741,364.108429 
M233.979874,306.446594 
	C234.021317,292.716583 219.616760,283.898682 208.712448,284.017792 
	C207.802246,284.027740 206.663452,284.169281 206.026337,284.713043 
	C201.839386,288.286652 203.902344,298.485229 208.952728,300.653442 
	C211.277542,301.651489 214.576721,303.149597 215.101608,305.061371 
	C216.808289,311.277466 220.526367,313.109009 226.527695,313.315277 
	C230.719055,313.459290 233.648178,311.813293 233.979874,306.446594 
M86.864738,336.651245 
	C84.210274,336.662415 81.549965,336.789917 78.902756,336.656860 
	C75.138611,336.467682 73.447647,337.994507 73.544937,341.883850 
	C73.698380,348.018188 73.707230,354.164520 73.500557,360.296478 
	C73.363602,364.359894 75.254738,365.937866 79.037331,365.893188 
	C80.530083,365.875549 82.023369,365.901398 83.516106,365.882843 
	C89.067795,365.813904 90.765327,364.390656 90.945290,359.019287 
	C91.128502,353.550537 91.272163,348.046906 90.828735,342.607849 
	C90.660423,340.543243 88.807053,338.616028 86.864738,336.651245 
M264.316589,283.666290 
	C262.493134,283.667786 260.669678,283.670990 258.846222,283.670471 
	C249.727966,283.667816 249.671829,283.669769 250.032394,292.511475 
	C250.122559,294.722473 250.030045,297.405304 251.202606,299.006165 
	C253.309875,301.883148 265.836456,301.953918 268.582336,299.434723 
	C269.589600,298.510559 270.691925,297.053619 270.716766,295.818939 
	C270.781555,292.598114 270.226410,289.369019 270.008606,286.137177 
	C269.773529,282.649139 267.848297,282.541809 264.316589,283.666290 
z"/>
<path fill="#F4F1FA" opacity="1.000000" stroke="none" 
	d="
M417.181519,244.002518 
	C417.181488,246.583282 417.181488,249.164032 417.181488,252.382782 
	C343.376434,252.382782 269.440155,252.382782 195.050034,252.382782 
	C195.050034,250.506973 195.050064,248.718048 195.050018,246.929123 
	C195.048248,177.268616 195.084732,107.608055 194.959290,37.947777 
	C194.950867,33.267735 195.358505,31.665720 201.063248,31.751623 
	C233.038010,32.233109 265.024048,32.050495 297.005676,31.936401 
	C305.427826,31.906355 313.847290,31.054672 322.269196,31.031830 
	C346.069275,30.967279 369.869995,31.140827 393.670441,31.211746 
	C399.824310,31.230082 405.991913,31.466572 412.127411,31.130718 
	C416.377075,30.898092 417.640533,32.954258 417.644043,36.563797 
	C417.650360,43.037678 417.580597,49.511627 417.326050,56.786011 
	C417.133545,82.391708 417.157623,107.196953 417.181702,132.002197 
	C417.130951,143.358521 417.080170,154.714844 417.039185,166.998108 
	C417.093140,193.284210 417.137329,218.643372 417.181519,244.002518 
M201.813629,142.499908 
	C201.813629,176.914322 201.813629,211.328751 201.813629,246.044373 
	C203.950424,246.044373 205.587006,246.044418 207.223602,246.044388 
	C272.691559,246.043152 338.159668,245.982635 403.627167,246.156097 
	C408.723450,246.169586 410.080597,244.510193 410.073181,239.722870 
	C409.971466,174.088455 410.006195,108.453842 409.991028,42.819283 
	C409.990753,41.562653 409.791931,40.306068 409.703552,39.260231 
	C340.245728,39.260231 271.204865,39.260231 201.813629,39.260231 
	C201.813629,73.569466 201.813629,107.534683 201.813629,142.499908 
z"/>
<path fill="#F8F6FB" opacity="1.000000" stroke="none" 
	d="
M92.622429,315.381256 
	C88.658112,310.059998 84.960800,305.002716 81.217232,299.979889 
	C79.247330,297.336853 76.884109,294.928558 75.294762,292.081421 
	C74.276192,290.256775 73.577477,287.559174 74.200531,285.760406 
	C74.605568,284.591034 77.597160,284.058411 79.514702,283.717773 
	C87.049004,282.379425 91.951454,285.022430 96.400879,291.855896 
	C105.587013,305.964111 116.110031,319.202057 126.098839,332.786407 
	C126.378067,333.166168 126.835846,333.414642 127.795624,334.208282 
	C127.993225,330.422363 128.298019,327.092621 128.317047,323.761200 
	C128.381744,312.437531 128.456985,301.111694 128.292542,289.790100 
	C128.227615,285.320801 129.883209,283.498291 134.445221,283.600128 
	C145.622498,283.849670 145.984604,281.667389 145.951279,295.309662 
	C145.899612,316.459076 145.943436,337.608734 145.933502,358.758270 
	C145.930984,364.132782 144.224564,365.570923 138.967422,365.957703 
	C132.542725,366.430359 128.222595,364.839935 124.221504,358.841156 
	C114.812248,344.733978 104.148972,331.463531 94.014000,317.838989 
	C93.530289,317.188721 93.246910,316.389404 92.622429,315.381256 
z"/>
<path fill="#F7F5FA" opacity="1.000000" stroke="none" 
	d="
M233.940155,331.297729 
	C242.354889,351.694946 227.311813,366.936707 208.547318,365.784607 
	C207.070572,365.693939 204.966644,364.017242 204.451416,362.604523 
	C203.477936,359.935364 202.873245,356.842102 203.256256,354.083466 
	C203.464310,352.584961 205.862946,351.131500 207.565796,350.181885 
	C208.919525,349.427002 211.064514,349.935944 212.245773,349.058899 
	C214.778488,347.178497 218.178268,345.110107 218.896286,342.482819 
	C219.804626,339.159180 216.228302,337.365631 213.079407,336.413483 
	C203.720047,333.583527 194.318085,330.885986 185.011353,327.892395 
	C170.845367,323.335815 164.078842,308.281250 171.499405,295.824219 
	C175.772522,288.650879 183.190048,284.423645 191.967560,283.628174 
	C193.424484,283.496124 194.881348,283.363281 197.775482,283.100159 
	C198.161240,287.292694 199.154785,291.616364 198.668655,295.766754 
	C198.452606,297.611176 195.440674,300.155701 193.363419,300.530792 
	C189.575912,301.214844 187.286606,302.727386 186.556549,306.404785 
	C185.735474,310.540710 189.199554,311.440338 191.792740,312.295105 
	C198.595596,314.537445 205.504974,316.492706 212.447723,318.265381 
	C220.842911,320.408905 228.464447,323.684967 233.940155,331.297729 
z"/>
<path fill="#F8F6FA" opacity="1.000000" stroke="none" 
	d="
M293.557861,313.011414 
	C293.550537,328.988556 293.427490,344.469604 293.608246,359.947144 
	C293.660706,364.437500 292.283203,366.110443 287.589874,366.006744 
	C276.027710,365.751282 276.023712,365.955109 276.023773,354.358215 
	C276.023926,333.219208 276.015900,312.080200 276.027405,290.941193 
	C276.031097,284.168610 276.582275,283.659424 283.366974,283.665771 
	C293.686615,283.675446 304.009094,283.801453 314.324463,283.590240 
	C318.115204,283.512634 319.675232,284.578705 319.708099,288.592285 
	C319.808777,300.880981 319.806854,301.012543 307.402527,301.011047 
	C303.104156,301.010529 298.805817,301.010956 293.557892,301.010956 
	C293.557892,305.015533 293.557892,308.764771 293.557861,313.011414 
z"/>
<path fill="#F8F6FA" opacity="1.000000" stroke="none" 
	d="
M537.898804,296.273804 
	C535.604309,298.103821 533.516663,299.856995 531.116943,300.873566 
	C523.355652,304.161407 517.089539,310.998779 516.469238,319.984711 
	C515.869202,328.676971 516.103577,337.059387 523.392517,343.155457 
	C526.067444,345.392578 529.457031,346.878418 532.696716,348.307770 
	C535.858154,349.702545 539.072083,357.426819 537.795166,361.447723 
	C536.307251,366.133026 534.780212,366.467010 528.488770,365.053101 
	C511.872986,361.318848 500.497620,347.238892 498.791016,329.935181 
	C497.428497,316.119781 500.815399,304.181671 509.889404,294.375031 
	C515.153076,288.686371 522.388733,284.771454 530.526672,283.619080 
	C535.613892,282.898682 537.453186,284.440308 537.921570,289.874390 
	C538.092407,291.855988 537.957947,293.863831 537.898804,296.273804 
z"/>
<path fill="#F8F6FA" opacity="1.000000" stroke="none" 
	d="
M554.269958,364.266663 
	C552.211914,364.973053 550.509827,365.644958 548.752319,365.856873 
	C545.253418,366.278809 542.883362,365.094971 543.020081,361.039459 
	C543.064880,359.709503 543.244873,358.336700 543.000183,357.052673 
	C541.978638,351.692657 544.422485,348.476837 549.399597,347.419250 
	C562.644287,344.604828 566.252869,327.006805 563.391968,317.286377 
	C560.818298,308.541870 555.578735,302.530121 546.291626,300.370300 
	C544.950256,300.058350 543.563538,297.734528 543.167236,296.105865 
	C542.632202,293.906372 543.345337,291.427612 542.972046,289.159302 
	C542.209106,284.522308 545.455322,282.360321 550.401245,283.622437 
	C565.781677,287.547302 576.003662,297.331451 580.667358,312.625824 
	C586.066162,330.330872 578.396729,350.806335 562.576233,360.674622 
	C560.161072,362.181122 557.271179,362.926636 554.269958,364.266663 
z"/>
<path fill="#F6F4F9" opacity="1.000000" stroke="none" 
	d="
M360.310059,336.140381 
	C358.663361,326.954651 365.556580,321.947815 369.369019,315.820709 
	C375.336151,306.230774 382.455139,297.364868 388.728058,287.953522 
	C390.630554,285.099121 392.529083,283.687408 395.921143,283.943756 
	C398.736481,284.156525 401.580719,283.970551 404.411957,283.992188 
	C409.610168,284.031891 411.083588,286.507355 408.156525,290.912842 
	C403.853851,297.388733 399.184204,303.619537 394.751007,310.010315 
	C389.297668,317.871735 383.878723,325.758423 378.581909,333.725250 
	C377.933258,334.700897 377.968933,336.237000 377.960175,337.515228 
	C377.907562,345.176239 377.845978,352.839233 377.973236,360.498505 
	C378.035461,364.244293 376.565918,365.866241 372.733765,365.956512 
	C360.356903,366.247955 360.351105,366.329651 360.311188,354.106018 
	C360.292145,348.276825 360.308807,342.447479 360.310059,336.140381 
z"/>
<path fill="#F7F6F9" opacity="1.000000" stroke="none" 
	d="
M427.042175,351.972412 
	C427.040497,330.685150 427.136017,309.891632 426.954773,289.100586 
	C426.918823,284.977875 428.197601,283.526520 432.330566,283.542480 
	C444.352203,283.588989 444.456848,283.461761 444.545471,296.844574 
	C444.666199,315.076935 444.602203,333.310486 444.635925,351.543518 
	C444.639923,353.692017 444.735199,355.841431 444.832336,357.988403 
	C445.053802,362.883362 442.458618,365.857147 437.629669,365.879486 
	C426.014679,365.933258 426.916260,367.077850 427.042175,351.972412 
z"/>
<path fill="#F4F2F9" opacity="1.000000" stroke="none" 
	d="
M46.974663,335.002380 
	C46.975643,343.804749 46.876541,352.109436 47.020588,360.409882 
	C47.091011,364.467560 45.381924,366.001801 41.383698,365.951019 
	C30.143955,365.808350 30.219202,367.073975 30.334295,354.886475 
	C30.436218,344.093567 30.511475,333.295959 30.291588,322.506683 
	C30.197756,317.902527 31.617853,315.887543 36.507187,315.991241 
	C47.001610,316.213776 47.181564,314.824493 46.981438,326.532227 
	C46.936035,329.188385 46.974728,331.845978 46.974663,335.002380 
z"/>
<path fill="#F6F3F9" opacity="1.000000" stroke="none" 
	d="
M197.677368,350.629730 
	C198.213699,354.704559 199.176956,358.508636 198.718262,362.132751 
	C198.109680,366.941101 193.765640,366.531433 190.542267,365.738678 
	C179.286255,362.970367 170.519989,357.250793 167.556885,345.028564 
	C166.282211,339.770782 167.175919,336.153503 170.698486,335.149902 
	C177.618362,333.178406 183.302826,335.178131 184.651291,340.353546 
	C185.762848,344.619812 188.278717,347.151703 192.436752,348.336914 
	C194.159500,348.827942 195.795761,349.622406 197.677368,350.629730 
z"/>
<path fill="#F7F4F9" opacity="1.000000" stroke="none" 
	d="
M362.764343,306.518585 
	C363.380035,311.305908 360.880310,312.424469 357.028839,312.981415 
	C348.774139,314.175110 343.145447,311.395599 339.290741,303.803741 
	C336.896118,299.087616 333.100067,295.100769 330.266815,290.577545 
	C329.533447,289.406708 329.566223,287.228577 330.154755,285.922089 
	C330.635315,284.855286 332.465057,284.391602 333.707794,283.680023 
	C333.832733,283.608490 334.045532,283.710022 334.200073,283.667633 
	C345.712769,280.508179 351.138977,288.053253 356.257111,296.178162 
	C358.362152,299.519867 360.535614,302.818451 362.764343,306.518585 
z"/>
<path fill="#F3F1F8" opacity="1.000000" stroke="none" 
	d="
M450.205902,363.705994 
	C449.794037,359.733032 448.945374,356.069397 449.499725,352.631989 
	C449.770294,350.954315 452.591553,348.547516 454.368347,348.448669 
	C462.468109,347.997925 470.608337,348.160736 478.731110,348.289246 
	C482.309601,348.345856 484.150635,349.923492 484.073181,354.077728 
	C483.852356,365.926147 484.035278,365.927185 472.139618,365.916687 
	C466.667786,365.911835 461.189789,366.066223 455.727661,365.836792 
	C453.912994,365.760590 452.139221,364.712311 450.205902,363.705994 
z"/>
<path fill="#F7F4F9" opacity="1.000000" stroke="none" 
	d="
M233.979614,306.875732 
	C233.648178,311.813293 230.719055,313.459290 226.527695,313.315277 
	C220.526367,313.109009 216.808289,311.277466 215.101608,305.061371 
	C214.576721,303.149597 211.277542,301.651489 208.952728,300.653442 
	C203.902344,298.485229 201.839386,288.286652 206.026337,284.713043 
	C206.663452,284.169281 207.802246,284.027740 208.712448,284.017792 
	C219.616760,283.898682 234.021317,292.716583 233.979614,306.875732 
z"/>
<path fill="#FBF9FC" opacity="1.000000" stroke="none" 
	d="
M87.293221,336.638733 
	C88.807053,338.616028 90.660423,340.543243 90.828735,342.607849 
	C91.272163,348.046906 91.128502,353.550537 90.945290,359.019287 
	C90.765327,364.390656 89.067795,365.813904 83.516106,365.882843 
	C82.023369,365.901398 80.530083,365.875549 79.037331,365.893188 
	C75.254738,365.937866 73.363602,364.359894 73.500557,360.296478 
	C73.707230,354.164520 73.698380,348.018188 73.544937,341.883850 
	C73.447647,337.994507 75.138611,336.467682 78.902756,336.656860 
	C81.549965,336.789917 84.210274,336.662415 87.293221,336.638733 
z"/>
<path fill="#FBF9FC" opacity="1.000000" stroke="none" 
	d="
M31.128962,285.032898 
	C35.742947,284.719055 40.361965,284.198456 44.965584,284.310547 
	C45.669888,284.327667 46.812767,287.246460 46.877621,288.858429 
	C47.111870,294.681244 46.840786,300.523071 47.016747,306.350006 
	C47.151066,310.797913 44.952606,312.896423 40.818386,312.807617 
	C37.744759,312.741608 34.685593,312.002533 31.311600,310.839844 
	C31.045134,301.755280 31.087048,293.394104 31.128962,285.032898 
z"/>
<path fill="#F9F6FB" opacity="1.000000" stroke="none" 
	d="
M264.782898,283.646545 
	C267.848297,282.541809 269.773529,282.649139 270.008606,286.137177 
	C270.226410,289.369019 270.781555,292.598114 270.716766,295.818939 
	C270.691925,297.053619 269.589600,298.510559 268.582336,299.434723 
	C265.836456,301.953918 253.309875,301.883148 251.202606,299.006165 
	C250.030045,297.405304 250.122559,294.722473 250.032394,292.511475 
	C249.671829,283.669769 249.727966,283.667816 258.846222,283.670471 
	C260.669678,283.670990 262.493134,283.667786 264.782898,283.646545 
z"/>
<path fill="#FF00FF" opacity="1.000000" stroke="none" 
	d="
M417.538361,243.763290 
	C417.137329,218.643372 417.093140,193.284210 417.115417,167.461060 
	C417.454315,167.867477 417.964172,168.737823 417.964478,169.608337 
	C417.972809,194.246902 417.929840,218.885483 417.538361,243.763290 
z"/>
<path fill="#FF00FF" opacity="1.000000" stroke="none" 
	d="
M417.538513,131.762970 
	C417.157623,107.196953 417.133545,82.391708 417.322205,57.221943 
	C417.689819,58.155056 417.979889,59.452736 417.979492,60.750324 
	C417.972229,84.341476 417.930084,107.932617 417.538513,131.762970 
z"/>
<path fill="#8970B5" opacity="1.000000" stroke="none" 
	d="
M30.772593,285.276184 
	C31.087048,293.394104 31.045134,301.755280 31.022459,310.590973 
	C30.699615,309.611664 30.061102,308.156860 30.065701,306.704132 
	C30.088055,299.642303 30.282629,292.580963 30.772593,285.276184 
z"/>
<path fill="#000000" opacity="1.000000" stroke="none" 
	d="
M201.813629,141.999908 
	C201.813629,107.534683 201.813629,73.569466 201.813629,39.260231 
	C271.204865,39.260231 340.245728,39.260231 409.703552,39.260231 
	C409.791931,40.306068 409.990753,41.562653 409.991028,42.819283 
	C410.006195,108.453842 409.971466,174.088455 410.073181,239.722870 
	C410.080597,244.510193 408.723450,246.169586 403.627167,246.156097 
	C338.159668,245.982635 272.691559,246.043152 207.223602,246.044388 
	C205.587006,246.044418 203.950424,246.044373 201.813629,246.044373 
	C201.813629,211.328751 201.813629,176.914322 201.813629,141.999908 
M281.728088,216.506653 
	C286.025879,215.110306 290.647400,214.318207 294.568085,212.217911 
	C317.190094,200.099319 324.981140,172.735855 310.520782,150.886063 
	C298.471771,132.679901 279.666412,129.112793 263.800293,133.494171 
	C246.570435,138.252121 231.201889,155.892090 233.204086,178.158356 
	C234.561447,193.253418 248.658813,211.384857 262.061249,214.392365 
	C268.225372,215.775604 274.628723,216.092743 281.728088,216.506653 
M376.080963,91.881142 
	C384.691589,84.622459 385.392212,81.226067 383.423218,72.869270 
	C381.601013,65.135445 371.005524,60.509766 363.120483,63.412800 
	C355.670441,66.155678 351.567322,77.062950 354.998352,84.476768 
	C358.652802,92.373451 365.658142,94.986320 376.080963,91.881142 
z"/>
<path fill="#FCFCFD" opacity="1.000000" stroke="none" 
	d="
M281.325867,216.699982 
	C274.628723,216.092743 268.225372,215.775604 262.061249,214.392365 
	C248.658813,211.384857 234.561447,193.253418 233.204086,178.158356 
	C231.201889,155.892090 246.570435,138.252121 263.800293,133.494171 
	C279.666412,129.112793 298.471771,132.679901 310.520782,150.886063 
	C324.981140,172.735855 317.190094,200.099319 294.568085,212.217911 
	C290.647400,214.318207 286.025879,215.110306 281.325867,216.699982 
z"/>
<path fill="#F8F6FA" opacity="1.000000" stroke="none" 
	d="
M375.703674,91.969971 
	C365.658142,94.986320 358.652802,92.373451 354.998352,84.476768 
	C351.567322,77.062950 355.670441,66.155678 363.120483,63.412800 
	C371.005524,60.509766 381.601013,65.135445 383.423218,72.869270 
	C385.392212,81.226067 384.691589,84.622459 375.703674,91.969971 
z"/>
</svg>