<svg width="24" height="24" viewBox="0 0 24 24" fill="none" xmlns="http://www.w3.org/2000/svg">
  <defs>
    <linearGradient id="vaultGradient" x1="2" y1="2" x2="22" y2="22">
      <stop offset="0%" stop-color="#6ACFFF" />
      <stop offset="100%" stop-color="#2176FF" />
    </linearGradient>
  </defs>
  <path fill-rule="evenodd" clip-rule="evenodd" d="M7 2C4.79086 2 3 3.79086 3 6V18C3 20.2091 4.79086 22 7 22H17C19.2091 22 21 20.2091 21 18V6C21 3.79086 19.2091 2 17 2H7ZM8 8C7.44772 8 7 8.44772 7 9V17C7 17.5523 7.44772 18 8 18H16C16.5523 18 17 17.5523 17 17V9C17 8.44772 16.5523 8 16 8H8ZM16 5C16.5523 5 17 4.55228 17 4C17 3.44772 16.5523 3 16 3C15.4477 3 15 3.44772 15 4C15 4.55228 15.4477 5 16 5Z" fill="url(#vaultGradient)"/>
</svg>