<svg width="24" height="24" viewBox="0 0 24 24" fill="none" xmlns="http://www.w3.org/2000/svg">
  <defs>
    <linearGradient id="createMagicGradient" x1="2" y1="2" x2="22" y2="22">
      <stop offset="0%" stop-color="#9D6AFF" />
      <stop offset="100%" stop-color="#FF6AE4" />
    </linearGradient>
  </defs>
  <path fill-rule="evenodd" clip-rule="evenodd" d="M6.5 4C5.11929 4 4 5.11929 4 6.5V17.5C4 18.8807 5.11929 20 6.5 20H17.5C18.8807 20 20 18.8807 20 17.5V6.5C20 5.11929 18.8807 4 17.5 4H6.5ZM6 14L9 11L11 13L16 8L18 10V16C18 16.5523 17.5523 17 17 17H7C6.44772 17 6 16.5523 6 16V14ZM21 8L19 6L21 4" stroke="url(#createMagicGradient)" stroke-width="2" stroke-linecap="round" stroke-linejoin="round"/>
  <circle cx="9" cy="8" r="1.5" fill="url(#createMagicGradient)"/>
</svg>