<svg xmlns="http://www.w3.org/2000/svg" xmlns:v="https://svgstorm.com"
viewBox = "0 0 40 40"
width="40"
height="40">
<g fill="None" fill-opacity="0.0" stroke="#000000" stroke-opacity="0.00" stroke-width="0.3"><path d="
M 0.00 40.00 
L 40.00 40.00
L 40.00 0.00
L 0.00 0.00
L 0.00 40.00
M 28.00 8.00 
C 28.09 8.48 28.00 9.00 28.00 9.00
C 29.48 11.03 28.08 14.56 27.00 17.00
C 26.85 17.34 26.20 17.73 26.00 18.00
C 23.50 23.52 21.00 22.49 21.00 30.00
C 21.28 29.69 25.52 29.84 26.00 30.00
C 28.68 30.90 28.42 34.05 26.00 35.00
C 25.57 35.17 25.00 35.00 25.00 35.00
C 21.87 35.00 16.96 35.96 14.00 35.00
C 13.14 34.72 12.15 33.93 12.00 33.00
C 11.60 31.65 12.88 30.38 14.00 30.00
C 14.48 29.84 18.72 29.69 19.00 30.00
C 19.00 22.97 17.71 22.93 14.00 18.00
C 13.80 17.73 13.20 17.31 13.00 17.00
C 11.86 15.27 12.37 13.93 12.00 12.00
C 11.68 10.34 11.52 10.69 12.00 9.00
C 10.92 0.31 26.40 -0.17 28.00 8.00 Z"/>
</g>
<g fill="None" fill-opacity="0.0" stroke="#405EFF" stroke-opacity="0.55" stroke-width="0.3"><path d="
M 12.00 9.00 
C 12.27 8.75 13.00 9.00 13.00 9.00
C 13.74 9.47 14.59 11.27 15.00 12.00
C 15.93 13.60 14.81 11.94 15.00 13.00
C 15.26 13.12 15.69 13.79 16.00 14.00
C 16.31 14.21 16.97 14.65 17.00 15.00
C 17.05 15.50 17.00 16.00 17.00 16.00
C 19.05 17.73 21.80 17.27 23.00 15.00
C 22.50 15.00 22.00 15.00 22.00 15.00
C 21.50 15.00 21.00 15.00 21.00 15.00
C 20.50 15.00 19.47 15.12 19.00 15.00
C 18.65 14.91 17.91 14.09 18.00 14.00
C 18.14 13.85 16.90 12.39 17.00 12.00
C 16.57 11.34 15.72 11.22 16.00 10.00
C 15.97 9.98 16.75 9.25 17.00 9.00
C 17.03 8.65 17.65 8.03 18.00 8.00
C 18.25 7.75 18.71 7.23 19.00 7.00
C 20.25 6.00 19.81 6.05 21.00 7.00
C 21.29 7.23 21.75 7.75 22.00 8.00
C 22.35 8.03 22.97 8.65 23.00 9.00
C 23.25 9.25 23.97 9.65 24.00 10.00
C 24.05 10.50 24.00 11.00 24.00 11.00
C 24.63 10.39 26.49 10.23 27.00 9.00
C 27.41 10.56 26.54 11.69 26.00 13.00
C 25.57 14.33 25.68 13.98 25.00 15.00
C 25.25 15.25 25.00 16.00 25.00 16.00
C 25.00 16.50 25.00 17.00 25.00 17.00
C 25.44 16.84 26.00 17.00 26.00 17.00
C 26.50 17.00 27.00 17.00 27.00 17.00
C 28.08 14.56 29.48 11.03 28.00 9.00
C 28.41 9.80 26.50 6.85 28.00 8.00
C 26.40 -0.17 10.92 0.31 12.00 9.00
M 21.00 4.00 
C 21.25 4.14 19.00 5.92 19.00 4.00
C 18.75 3.86 21.00 2.08 21.00 4.00
M 26.00 8.00 
C 20.83 6.78 25.17 3.43 26.00 8.00
M 15.00 7.00 
C 15.74 7.74 14.18 6.18 15.00 7.00 Z"/>
</g>
<g fill="None" fill-opacity="0.0" stroke="#2069FF" stroke-opacity="0.80" stroke-width="0.3"><path d="
M 19.00 4.00 
C 19.38 3.78 20.62 4.22 21.00 4.00
C 21.00 2.08 18.75 3.86 19.00 4.00 Z"/>
</g>
<g fill="None" fill-opacity="0.0" stroke="#000000" stroke-opacity="0.00" stroke-width="0.3"><path d="
M 21.00 4.00 
C 20.62 4.22 19.38 3.78 19.00 4.00
C 19.00 5.92 21.25 4.14 21.00 4.00 Z"/>
</g>
<g fill="None" fill-opacity="0.0" stroke="#3C5EFF" stroke-opacity="0.27" stroke-width="0.3"><path d="
M 26.00 8.00 
C 25.17 3.43 20.83 6.78 26.00 8.00 Z"/>
</g>
<g fill="None" fill-opacity="0.0" stroke="#3262FF" stroke-opacity="0.30" stroke-width="0.3"><path d="
M 19.00 7.00 
C 19.16 6.77 20.84 6.77 21.00 7.00
C 19.81 6.05 20.25 6.00 19.00 7.00 Z"/>
</g>
<g fill="None" fill-opacity="0.0" stroke="#246CFF" stroke-opacity="0.03" stroke-width="0.3"><path d="
M 15.00 7.00 
C 14.18 6.18 15.74 7.74 15.00 7.00 Z"/>
</g>
<g fill="None" fill-opacity="0.0" stroke="#71C6FF" stroke-opacity="0.11" stroke-width="0.3"><path d="
M 18.00 8.00 
C 18.50 7.95 19.00 8.00 19.00 8.00
C 19.25 7.75 19.00 7.00 19.00 7.00
C 18.71 7.23 18.25 7.75 18.00 8.00 Z"/>
</g>
<g fill="None" fill-opacity="0.0" stroke="#75C6FF" stroke-opacity="0.40" stroke-width="0.3"><path d="
M 19.00 8.00 
C 19.50 8.00 20.50 8.00 21.00 8.00
C 20.75 7.75 21.00 7.00 21.00 7.00
C 20.84 6.77 19.16 6.77 19.00 7.00
C 19.00 7.00 19.25 7.75 19.00 8.00 Z"/>
</g>
<g fill="None" fill-opacity="0.0" stroke="#71C6FF" stroke-opacity="0.11" stroke-width="0.3"><path d="
M 21.00 8.00 
C 21.50 8.00 22.00 8.00 22.00 8.00
C 21.75 7.75 21.29 7.23 21.00 7.00
C 21.00 7.00 20.75 7.75 21.00 8.00 Z"/>
</g>
<g fill="None" fill-opacity="0.0" stroke="#8DBFFF" stroke-opacity="0.84" stroke-width="0.3"><path d="
M 17.00 9.00 
C 16.95 9.50 17.00 10.00 17.00 10.00
C 18.53 10.32 21.47 10.32 23.00 10.00
C 22.75 9.75 23.00 9.00 23.00 9.00
C 22.97 8.65 22.35 8.03 22.00 8.00
C 22.00 8.00 21.50 8.00 21.00 8.00
C 20.50 8.00 19.50 8.00 19.00 8.00
C 19.00 8.00 18.50 7.95 18.00 8.00
C 17.65 8.03 17.03 8.65 17.00 9.00 Z"/>
</g>
<g fill="None" fill-opacity="0.0" stroke="#3A5EFF" stroke-opacity="0.80" stroke-width="0.3"><path d="
M 28.00 9.00 
C 28.00 9.00 28.09 8.48 28.00 8.00
C 26.50 6.85 28.41 9.80 28.00 9.00 Z"/>
</g>
<g fill="None" fill-opacity="0.0" stroke="#4359FF" stroke-opacity="0.06" stroke-width="0.3"><path d="
M 12.00 12.00 
C 11.90 11.91 11.90 9.09 12.00 9.00
C 11.52 10.69 11.68 10.34 12.00 12.00 Z"/>
</g>
<g fill="None" fill-opacity="0.0" stroke="#455AFF" stroke-opacity="1.00" stroke-width="0.3"><path d="
M 12.00 12.00 
C 12.27 12.25 13.00 12.00 13.00 12.00
C 12.84 11.47 13.38 9.36 13.00 9.00
C 13.00 9.00 12.27 8.75 12.00 9.00
C 11.90 9.09 11.90 11.91 12.00 12.00 Z"/>
</g>
<g fill="None" fill-opacity="0.0" stroke="#4957FF" stroke-opacity="0.25" stroke-width="0.3"><path d="
M 13.00 12.00 
C 13.26 12.12 13.65 12.97 14.00 13.00
C 14.50 13.05 15.00 13.00 15.00 13.00
C 15.25 12.75 15.00 12.00 15.00 12.00
C 14.59 11.27 13.74 9.47 13.00 9.00
C 13.38 9.36 12.84 11.47 13.00 12.00 Z"/>
</g>
<g fill="None" fill-opacity="0.0" stroke="#000000" stroke-opacity="0.00" stroke-width="0.3"><path d="
M 16.00 10.00 
C 16.26 9.75 17.00 10.00 17.00 10.00
C 17.00 10.00 16.95 9.50 17.00 9.00
C 16.75 9.25 15.97 9.98 16.00 10.00 Z"/>
</g>
<g fill="None" fill-opacity="0.0" stroke="#000000" stroke-opacity="0.00" stroke-width="0.3"><path d="
M 23.00 10.00 
C 23.25 9.75 24.00 10.00 24.00 10.00
C 23.97 9.65 23.25 9.25 23.00 9.00
C 23.00 9.00 22.75 9.75 23.00 10.00 Z"/>
</g>
<g fill="None" fill-opacity="0.0" stroke="#4959FF" stroke-opacity="0.36" stroke-width="0.3"><path d="
M 24.00 11.00 
C 24.25 11.25 24.00 12.00 24.00 12.00
C 24.12 12.26 24.74 12.88 25.00 13.00
C 25.40 12.80 26.00 13.00 26.00 13.00
C 26.54 11.69 27.41 10.56 27.00 9.00
C 26.49 10.23 24.63 10.39 24.00 11.00 Z"/>
</g>
<g fill="None" fill-opacity="0.0" stroke="#949CFF" stroke-opacity="0.04" stroke-width="0.3"><path d="
M 17.00 12.00 
C 17.12 11.53 17.23 10.16 17.00 10.00
C 17.00 10.00 16.26 9.75 16.00 10.00
C 15.72 11.22 16.57 11.34 17.00 12.00 Z"/>
</g>
<g fill="None" fill-opacity="0.0" stroke="#B6B6FF" stroke-opacity="0.92" stroke-width="0.3"><path d="
M 17.00 12.00 
C 16.90 12.39 18.14 13.85 18.00 14.00
C 18.40 14.20 19.00 14.00 19.00 14.00
C 19.81 13.46 19.96 13.42 21.00 13.00
C 21.16 12.93 22.99 12.03 23.00 12.00
C 22.75 11.75 23.00 11.00 23.00 11.00
C 23.00 10.50 23.00 10.00 23.00 10.00
C 21.47 10.32 18.53 10.32 17.00 10.00
C 17.23 10.16 17.12 11.53 17.00 12.00 Z"/>
</g>
<g fill="None" fill-opacity="0.0" stroke="#AAB8FF" stroke-opacity="0.07" stroke-width="0.3"><path d="
M 23.00 11.00 
C 23.25 10.75 24.00 11.00 24.00 11.00
C 24.00 11.00 24.05 10.50 24.00 10.00
C 24.00 10.00 23.25 9.75 23.00 10.00
C 23.00 10.00 23.00 10.50 23.00 11.00 Z"/>
</g>
<g fill="None" fill-opacity="0.0" stroke="#FFFFFF" stroke-opacity="0.00" stroke-width="0.3"><path d="
M 23.00 12.00 
C 23.40 11.80 24.00 12.00 24.00 12.00
C 24.00 12.00 24.25 11.25 24.00 11.00
C 24.00 11.00 23.25 10.75 23.00 11.00
C 23.00 11.00 22.75 11.75 23.00 12.00 Z"/>
</g>
<g fill="None" fill-opacity="0.0" stroke="#973DFF" stroke-opacity="0.59" stroke-width="0.3"><path d="
M 13.00 17.00 
C 13.24 17.26 13.81 17.68 14.00 18.00
C 17.71 22.93 19.00 22.97 19.00 30.00
C 19.00 30.50 19.14 31.54 19.00 32.00
C 18.64 33.15 16.01 33.36 15.00 33.00
C 14.80 33.15 13.64 32.21 15.00 32.00
C 15.25 31.75 16.00 32.00 16.00 32.00
C 16.03 31.88 13.88 30.00 14.00 30.00
C 12.88 30.38 11.60 31.65 12.00 33.00
C 11.90 32.67 14.33 35.15 14.00 35.00
C 16.96 35.96 21.87 35.00 25.00 35.00
C 23.91 35.15 27.14 33.52 26.00 35.00
C 28.42 34.05 28.68 30.90 26.00 30.00
C 26.18 31.19 23.61 30.66 24.00 32.00
C 24.50 32.00 25.00 32.00 25.00 32.00
C 26.18 32.18 25.61 32.78 25.00 33.00
C 23.97 33.47 21.38 33.23 21.00 32.00
C 20.86 31.54 21.00 30.50 21.00 30.00
C 21.00 22.49 23.50 23.52 26.00 18.00
C 26.19 17.59 26.00 17.00 26.00 17.00
C 26.00 17.00 25.44 16.84 25.00 17.00
C 23.79 17.44 23.25 18.70 22.00 19.00
C 21.07 19.22 18.93 19.23 18.00 19.00
C 15.29 18.34 14.73 15.04 14.00 13.00
C 13.65 12.97 13.26 12.12 13.00 12.00
C 13.00 12.00 12.27 12.25 12.00 12.00
C 12.37 13.93 11.86 15.27 13.00 17.00 Z"/>
</g>
<g fill="None" fill-opacity="0.0" stroke="#5055FF" stroke-opacity="0.97" stroke-width="0.3"><path d="
M 15.00 13.00 
C 14.81 11.94 15.93 13.60 15.00 12.00
C 15.00 12.00 15.25 12.75 15.00 13.00 Z"/>
</g>
<g fill="None" fill-opacity="0.0" stroke="#CCB0FF" stroke-opacity="0.36" stroke-width="0.3"><path d="
M 21.00 13.00 
C 20.80 13.40 21.00 14.00 21.00 14.00
C 21.25 13.75 22.00 14.00 22.00 14.00
C 22.42 13.79 22.72 12.14 23.00 12.00
C 22.99 12.03 21.16 12.93 21.00 13.00 Z"/>
</g>
<g fill="None" fill-opacity="0.0" stroke="#4D4DFF" stroke-opacity="0.07" stroke-width="0.3"><path d="
M 22.00 14.00 
C 22.34 13.65 24.44 12.89 24.00 12.00
C 24.00 12.00 23.40 11.80 23.00 12.00
C 22.72 12.14 22.42 13.79 22.00 14.00 Z"/>
</g>
<g fill="None" fill-opacity="0.0" stroke="#5552FF" stroke-opacity="0.84" stroke-width="0.3"><path d="
M 22.00 14.00 
C 22.25 14.25 22.00 15.00 22.00 15.00
C 22.00 15.00 22.50 15.00 23.00 15.00
C 23.50 15.00 24.00 15.00 24.00 15.00
C 24.42 14.79 24.72 13.14 25.00 13.00
C 24.74 12.88 24.12 12.26 24.00 12.00
C 24.44 12.89 22.34 13.65 22.00 14.00 Z"/>
</g>
<g fill="None" fill-opacity="0.0" stroke="#5643D5" stroke-opacity="0.05" stroke-width="0.3"><path d="
M 18.00 19.00 
C 16.69 18.54 16.40 16.63 17.00 16.00
C 17.00 16.00 17.05 15.50 17.00 15.00
C 16.88 14.74 16.25 14.25 16.00 14.00
C 15.69 13.79 15.26 13.12 15.00 13.00
C 15.00 13.00 14.50 13.05 14.00 13.00
C 14.73 15.04 15.29 18.34 18.00 19.00 Z"/>
</g>
<g fill="None" fill-opacity="0.0" stroke="#D5AFFF" stroke-opacity="0.65" stroke-width="0.3"><path d="
M 19.00 14.00 
C 19.16 13.77 20.84 14.23 21.00 14.00
C 21.00 14.00 20.80 13.40 21.00 13.00
C 19.96 13.42 19.81 13.46 19.00 14.00 Z"/>
</g>
<g fill="None" fill-opacity="0.0" stroke="#4042FF" stroke-opacity="0.06" stroke-width="0.3"><path d="
M 24.00 15.00 
C 24.50 15.00 25.00 15.00 25.00 15.00
C 25.68 13.98 25.57 14.33 26.00 13.00
C 26.00 13.00 25.40 12.80 25.00 13.00
C 24.72 13.14 24.42 14.79 24.00 15.00 Z"/>
</g>
<g fill="None" fill-opacity="0.0" stroke="#5950FF" stroke-opacity="0.89" stroke-width="0.3"><path d="
M 17.00 15.00 
C 16.97 14.65 16.31 14.21 16.00 14.00
C 16.25 14.25 16.88 14.74 17.00 15.00 Z"/>
</g>
<g fill="None" fill-opacity="0.0" stroke="#5851FF" stroke-opacity="0.29" stroke-width="0.3"><path d="
M 19.00 15.00 
C 18.77 14.66 19.00 14.00 19.00 14.00
C 19.00 14.00 18.40 14.20 18.00 14.00
C 17.91 14.09 18.65 14.91 19.00 15.00 Z"/>
</g>
<g fill="None" fill-opacity="0.0" stroke="#624DFF" stroke-opacity="0.05" stroke-width="0.3"><path d="
M 19.00 15.00 
C 19.47 15.12 20.50 15.00 21.00 15.00
C 20.75 14.75 21.00 14.00 21.00 14.00
C 20.84 14.23 19.16 13.77 19.00 14.00
C 19.00 14.00 18.77 14.66 19.00 15.00 Z"/>
</g>
<g fill="None" fill-opacity="0.0" stroke="#5B50FF" stroke-opacity="0.30" stroke-width="0.3"><path d="
M 21.00 15.00 
C 21.00 15.00 21.50 15.00 22.00 15.00
C 22.00 15.00 22.25 14.25 22.00 14.00
C 22.00 14.00 21.25 13.75 21.00 14.00
C 21.00 14.00 20.75 14.75 21.00 15.00 Z"/>
</g>
<g fill="None" fill-opacity="0.0" stroke="#000000" stroke-opacity="0.00" stroke-width="0.3"><path d="
M 17.00 16.00 
C 16.40 16.63 16.69 18.54 18.00 19.00
C 18.93 19.23 21.07 19.22 22.00 19.00
C 22.43 18.86 24.42 16.43 25.00 16.00
C 25.00 16.00 25.25 15.25 25.00 15.00
C 25.00 15.00 24.50 15.00 24.00 15.00
C 24.00 15.00 23.50 15.00 23.00 15.00
C 21.80 17.27 19.05 17.73 17.00 16.00 Z"/>
</g>
<g fill="None" fill-opacity="0.0" stroke="#6D46FF" stroke-opacity="0.05" stroke-width="0.3"><path d="
M 22.00 19.00 
C 23.25 18.70 23.79 17.44 25.00 17.00
C 25.00 17.00 25.00 16.50 25.00 16.00
C 24.42 16.43 22.43 18.86 22.00 19.00 Z"/>
</g>
<g fill="None" fill-opacity="0.0" stroke="#5554FF" stroke-opacity="0.02" stroke-width="0.3"><path d="
M 14.00 18.00 
C 13.81 17.68 13.24 17.26 13.00 17.00
C 13.20 17.31 13.80 17.73 14.00 18.00 Z"/>
</g>
<g fill="None" fill-opacity="0.0" stroke="#6632FF" stroke-opacity="0.02" stroke-width="0.3"><path d="
M 26.00 18.00 
C 26.20 17.73 26.85 17.34 27.00 17.00
C 27.00 17.00 26.50 17.00 26.00 17.00
C 26.00 17.00 26.19 17.59 26.00 18.00 Z"/>
</g>
<g fill="None" fill-opacity="0.0" stroke="#AF2CFF" stroke-opacity="0.44" stroke-width="0.3"><path d="
M 16.00 32.00 
C 16.34 32.00 18.82 32.23 19.00 32.00
C 19.14 31.54 19.00 30.50 19.00 30.00
C 18.72 29.69 14.48 29.84 14.00 30.00
C 13.88 30.00 16.03 31.88 16.00 32.00 Z"/>
</g>
<g fill="None" fill-opacity="0.0" stroke="#AF2CFF" stroke-opacity="0.44" stroke-width="0.3"><path d="
M 21.00 32.00 
C 21.08 32.16 23.73 32.00 24.00 32.00
C 23.61 30.66 26.18 31.19 26.00 30.00
C 25.52 29.84 21.28 29.69 21.00 30.00
C 21.00 30.50 20.86 31.54 21.00 32.00 Z"/>
</g>
<g fill="None" fill-opacity="0.0" stroke="#B82AFF" stroke-opacity="0.17" stroke-width="0.3"><path d="
M 15.00 33.00 
C 14.81 32.91 15.00 32.00 15.00 32.00
C 13.64 32.21 14.80 33.15 15.00 33.00 Z"/>
</g>
<g fill="None" fill-opacity="0.0" stroke="#000000" stroke-opacity="0.00" stroke-width="0.3"><path d="
M 15.00 33.00 
C 16.01 33.36 18.64 33.15 19.00 32.00
C 18.82 32.23 16.34 32.00 16.00 32.00
C 16.00 32.00 15.25 31.75 15.00 32.00
C 15.00 32.00 14.81 32.91 15.00 33.00 Z"/>
</g>
<g fill="None" fill-opacity="0.0" stroke="#000000" stroke-opacity="0.00" stroke-width="0.3"><path d="
M 25.00 33.00 
C 24.76 32.81 25.00 32.00 25.00 32.00
C 25.00 32.00 24.50 32.00 24.00 32.00
C 23.73 32.00 21.08 32.16 21.00 32.00
C 21.38 33.23 23.97 33.47 25.00 33.00 Z"/>
</g>
<g fill="None" fill-opacity="0.0" stroke="#B727FF" stroke-opacity="0.18" stroke-width="0.3"><path d="
M 25.00 33.00 
C 25.61 32.78 26.18 32.18 25.00 32.00
C 25.00 32.00 24.76 32.81 25.00 33.00 Z"/>
</g>
<g fill="None" fill-opacity="0.0" stroke="#DB22FF" stroke-opacity="0.05" stroke-width="0.3"><path d="
M 14.00 35.00 
C 14.33 35.15 11.90 32.67 12.00 33.00
C 12.15 33.93 13.14 34.72 14.00 35.00 Z"/>
</g>
<g fill="None" fill-opacity="0.0" stroke="#C226FF" stroke-opacity="0.26" stroke-width="0.3"><path d="
M 25.00 35.00 
C 25.00 35.00 25.57 35.17 26.00 35.00
C 27.14 33.52 23.91 35.15 25.00 35.00 Z"/>
</g>
<g fill="#000000" fill-opacity="0.00" stroke="None">
<path d="
M 0.00 40.00 
L 40.00 40.00
L 40.00 0.00
L 0.00 0.00
L 0.00 40.00
M 28.00 8.00 
C 28.09 8.48 28.00 9.00 28.00 9.00
C 29.48 11.03 28.08 14.56 27.00 17.00
C 26.85 17.34 26.20 17.73 26.00 18.00
C 23.50 23.52 21.00 22.49 21.00 30.00
C 21.28 29.69 25.52 29.84 26.00 30.00
C 28.68 30.90 28.42 34.05 26.00 35.00
C 25.57 35.17 25.00 35.00 25.00 35.00
C 21.87 35.00 16.96 35.96 14.00 35.00
C 13.14 34.72 12.15 33.93 12.00 33.00
C 11.60 31.65 12.88 30.38 14.00 30.00
C 14.48 29.84 18.72 29.69 19.00 30.00
C 19.00 22.97 17.71 22.93 14.00 18.00
C 13.80 17.73 13.20 17.31 13.00 17.00
C 11.86 15.27 12.37 13.93 12.00 12.00
C 11.68 10.34 11.52 10.69 12.00 9.00
C 10.92 0.31 26.40 -0.17 28.00 8.00 Z"/>
</g>
<g fill="#405EFF" fill-opacity="0.55" stroke="None">
<path d="
M 12.00 9.00 
C 12.27 8.75 13.00 9.00 13.00 9.00
C 13.74 9.47 14.59 11.27 15.00 12.00
C 15.93 13.60 14.81 11.94 15.00 13.00
C 15.26 13.12 15.69 13.79 16.00 14.00
C 16.31 14.21 16.97 14.65 17.00 15.00
C 17.05 15.50 17.00 16.00 17.00 16.00
C 19.05 17.73 21.80 17.27 23.00 15.00
C 22.50 15.00 22.00 15.00 22.00 15.00
C 21.50 15.00 21.00 15.00 21.00 15.00
C 20.50 15.00 19.47 15.12 19.00 15.00
C 18.65 14.91 17.91 14.09 18.00 14.00
C 18.14 13.85 16.90 12.39 17.00 12.00
C 16.57 11.34 15.72 11.22 16.00 10.00
C 15.97 9.98 16.75 9.25 17.00 9.00
C 17.03 8.65 17.65 8.03 18.00 8.00
C 18.25 7.75 18.71 7.23 19.00 7.00
C 20.25 6.00 19.81 6.05 21.00 7.00
C 21.29 7.23 21.75 7.75 22.00 8.00
C 22.35 8.03 22.97 8.65 23.00 9.00
C 23.25 9.25 23.97 9.65 24.00 10.00
C 24.05 10.50 24.00 11.00 24.00 11.00
C 24.63 10.39 26.49 10.23 27.00 9.00
C 27.41 10.56 26.54 11.69 26.00 13.00
C 25.57 14.33 25.68 13.98 25.00 15.00
C 25.25 15.25 25.00 16.00 25.00 16.00
C 25.00 16.50 25.00 17.00 25.00 17.00
C 25.44 16.84 26.00 17.00 26.00 17.00
C 26.50 17.00 27.00 17.00 27.00 17.00
C 28.08 14.56 29.48 11.03 28.00 9.00
C 28.41 9.80 26.50 6.85 28.00 8.00
C 26.40 -0.17 10.92 0.31 12.00 9.00
M 21.00 4.00 
C 21.25 4.14 19.00 5.92 19.00 4.00
C 18.75 3.86 21.00 2.08 21.00 4.00
M 26.00 8.00 
C 20.83 6.78 25.17 3.43 26.00 8.00
M 15.00 7.00 
C 15.74 7.74 14.18 6.18 15.00 7.00 Z"/>
</g>
<g fill="#2069FF" fill-opacity="0.80" stroke="None">
<path d="
M 19.00 4.00 
C 19.38 3.78 20.62 4.22 21.00 4.00
C 21.00 2.08 18.75 3.86 19.00 4.00 Z"/>
</g>
<g fill="#000000" fill-opacity="0.00" stroke="None">
<path d="
M 21.00 4.00 
C 20.62 4.22 19.38 3.78 19.00 4.00
C 19.00 5.92 21.25 4.14 21.00 4.00 Z"/>
</g>
<g fill="#3C5EFF" fill-opacity="0.27" stroke="None">
<path d="
M 26.00 8.00 
C 25.17 3.43 20.83 6.78 26.00 8.00 Z"/>
</g>
<g fill="#3262FF" fill-opacity="0.30" stroke="None">
<path d="
M 19.00 7.00 
C 19.16 6.77 20.84 6.77 21.00 7.00
C 19.81 6.05 20.25 6.00 19.00 7.00 Z"/>
</g>
<g fill="#246CFF" fill-opacity="0.03" stroke="None">
<path d="
M 15.00 7.00 
C 14.18 6.18 15.74 7.74 15.00 7.00 Z"/>
</g>
<g fill="#71C6FF" fill-opacity="0.11" stroke="None">
<path d="
M 18.00 8.00 
C 18.50 7.95 19.00 8.00 19.00 8.00
C 19.25 7.75 19.00 7.00 19.00 7.00
C 18.71 7.23 18.25 7.75 18.00 8.00 Z"/>
</g>
<g fill="#75C6FF" fill-opacity="0.40" stroke="None">
<path d="
M 19.00 8.00 
C 19.50 8.00 20.50 8.00 21.00 8.00
C 20.75 7.75 21.00 7.00 21.00 7.00
C 20.84 6.77 19.16 6.77 19.00 7.00
C 19.00 7.00 19.25 7.75 19.00 8.00 Z"/>
</g>
<g fill="#71C6FF" fill-opacity="0.11" stroke="None">
<path d="
M 21.00 8.00 
C 21.50 8.00 22.00 8.00 22.00 8.00
C 21.75 7.75 21.29 7.23 21.00 7.00
C 21.00 7.00 20.75 7.75 21.00 8.00 Z"/>
</g>
<g fill="#8DBFFF" fill-opacity="0.84" stroke="None">
<path d="
M 17.00 9.00 
C 16.95 9.50 17.00 10.00 17.00 10.00
C 18.53 10.32 21.47 10.32 23.00 10.00
C 22.75 9.75 23.00 9.00 23.00 9.00
C 22.97 8.65 22.35 8.03 22.00 8.00
C 22.00 8.00 21.50 8.00 21.00 8.00
C 20.50 8.00 19.50 8.00 19.00 8.00
C 19.00 8.00 18.50 7.95 18.00 8.00
C 17.65 8.03 17.03 8.65 17.00 9.00 Z"/>
</g>
<g fill="#3A5EFF" fill-opacity="0.80" stroke="None">
<path d="
M 28.00 9.00 
C 28.00 9.00 28.09 8.48 28.00 8.00
C 26.50 6.85 28.41 9.80 28.00 9.00 Z"/>
</g>
<g fill="#4359FF" fill-opacity="0.06" stroke="None">
<path d="
M 12.00 12.00 
C 11.90 11.91 11.90 9.09 12.00 9.00
C 11.52 10.69 11.68 10.34 12.00 12.00 Z"/>
</g>
<g fill="#455AFF" fill-opacity="1.00" stroke="None">
<path d="
M 12.00 12.00 
C 12.27 12.25 13.00 12.00 13.00 12.00
C 12.84 11.47 13.38 9.36 13.00 9.00
C 13.00 9.00 12.27 8.75 12.00 9.00
C 11.90 9.09 11.90 11.91 12.00 12.00 Z"/>
</g>
<g fill="#4957FF" fill-opacity="0.25" stroke="None">
<path d="
M 13.00 12.00 
C 13.26 12.12 13.65 12.97 14.00 13.00
C 14.50 13.05 15.00 13.00 15.00 13.00
C 15.25 12.75 15.00 12.00 15.00 12.00
C 14.59 11.27 13.74 9.47 13.00 9.00
C 13.38 9.36 12.84 11.47 13.00 12.00 Z"/>
</g>
<g fill="#000000" fill-opacity="0.00" stroke="None">
<path d="
M 16.00 10.00 
C 16.26 9.75 17.00 10.00 17.00 10.00
C 17.00 10.00 16.95 9.50 17.00 9.00
C 16.75 9.25 15.97 9.98 16.00 10.00 Z"/>
</g>
<g fill="#000000" fill-opacity="0.00" stroke="None">
<path d="
M 23.00 10.00 
C 23.25 9.75 24.00 10.00 24.00 10.00
C 23.97 9.65 23.25 9.25 23.00 9.00
C 23.00 9.00 22.75 9.75 23.00 10.00 Z"/>
</g>
<g fill="#4959FF" fill-opacity="0.36" stroke="None">
<path d="
M 24.00 11.00 
C 24.25 11.25 24.00 12.00 24.00 12.00
C 24.12 12.26 24.74 12.88 25.00 13.00
C 25.40 12.80 26.00 13.00 26.00 13.00
C 26.54 11.69 27.41 10.56 27.00 9.00
C 26.49 10.23 24.63 10.39 24.00 11.00 Z"/>
</g>
<g fill="#949CFF" fill-opacity="0.04" stroke="None">
<path d="
M 17.00 12.00 
C 17.12 11.53 17.23 10.16 17.00 10.00
C 17.00 10.00 16.26 9.75 16.00 10.00
C 15.72 11.22 16.57 11.34 17.00 12.00 Z"/>
</g>
<g fill="#B6B6FF" fill-opacity="0.92" stroke="None">
<path d="
M 17.00 12.00 
C 16.90 12.39 18.14 13.85 18.00 14.00
C 18.40 14.20 19.00 14.00 19.00 14.00
C 19.81 13.46 19.96 13.42 21.00 13.00
C 21.16 12.93 22.99 12.03 23.00 12.00
C 22.75 11.75 23.00 11.00 23.00 11.00
C 23.00 10.50 23.00 10.00 23.00 10.00
C 21.47 10.32 18.53 10.32 17.00 10.00
C 17.23 10.16 17.12 11.53 17.00 12.00 Z"/>
</g>
<g fill="#AAB8FF" fill-opacity="0.07" stroke="None">
<path d="
M 23.00 11.00 
C 23.25 10.75 24.00 11.00 24.00 11.00
C 24.00 11.00 24.05 10.50 24.00 10.00
C 24.00 10.00 23.25 9.75 23.00 10.00
C 23.00 10.00 23.00 10.50 23.00 11.00 Z"/>
</g>
<g fill="#FFFFFF" fill-opacity="0.00" stroke="None">
<path d="
M 23.00 12.00 
C 23.40 11.80 24.00 12.00 24.00 12.00
C 24.00 12.00 24.25 11.25 24.00 11.00
C 24.00 11.00 23.25 10.75 23.00 11.00
C 23.00 11.00 22.75 11.75 23.00 12.00 Z"/>
</g>
<g fill="#973DFF" fill-opacity="0.59" stroke="None">
<path d="
M 13.00 17.00 
C 13.24 17.26 13.81 17.68 14.00 18.00
C 17.71 22.93 19.00 22.97 19.00 30.00
C 19.00 30.50 19.14 31.54 19.00 32.00
C 18.64 33.15 16.01 33.36 15.00 33.00
C 14.80 33.15 13.64 32.21 15.00 32.00
C 15.25 31.75 16.00 32.00 16.00 32.00
C 16.03 31.88 13.88 30.00 14.00 30.00
C 12.88 30.38 11.60 31.65 12.00 33.00
C 11.90 32.67 14.33 35.15 14.00 35.00
C 16.96 35.96 21.87 35.00 25.00 35.00
C 23.91 35.15 27.14 33.52 26.00 35.00
C 28.42 34.05 28.68 30.90 26.00 30.00
C 26.18 31.19 23.61 30.66 24.00 32.00
C 24.50 32.00 25.00 32.00 25.00 32.00
C 26.18 32.18 25.61 32.78 25.00 33.00
C 23.97 33.47 21.38 33.23 21.00 32.00
C 20.86 31.54 21.00 30.50 21.00 30.00
C 21.00 22.49 23.50 23.52 26.00 18.00
C 26.19 17.59 26.00 17.00 26.00 17.00
C 26.00 17.00 25.44 16.84 25.00 17.00
C 23.79 17.44 23.25 18.70 22.00 19.00
C 21.07 19.22 18.93 19.23 18.00 19.00
C 15.29 18.34 14.73 15.04 14.00 13.00
C 13.65 12.97 13.26 12.12 13.00 12.00
C 13.00 12.00 12.27 12.25 12.00 12.00
C 12.37 13.93 11.86 15.27 13.00 17.00 Z"/>
</g>
<g fill="#5055FF" fill-opacity="0.97" stroke="None">
<path d="
M 15.00 13.00 
C 14.81 11.94 15.93 13.60 15.00 12.00
C 15.00 12.00 15.25 12.75 15.00 13.00 Z"/>
</g>
<g fill="#CCB0FF" fill-opacity="0.36" stroke="None">
<path d="
M 21.00 13.00 
C 20.80 13.40 21.00 14.00 21.00 14.00
C 21.25 13.75 22.00 14.00 22.00 14.00
C 22.42 13.79 22.72 12.14 23.00 12.00
C 22.99 12.03 21.16 12.93 21.00 13.00 Z"/>
</g>
<g fill="#4D4DFF" fill-opacity="0.07" stroke="None">
<path d="
M 22.00 14.00 
C 22.34 13.65 24.44 12.89 24.00 12.00
C 24.00 12.00 23.40 11.80 23.00 12.00
C 22.72 12.14 22.42 13.79 22.00 14.00 Z"/>
</g>
<g fill="#5552FF" fill-opacity="0.84" stroke="None">
<path d="
M 22.00 14.00 
C 22.25 14.25 22.00 15.00 22.00 15.00
C 22.00 15.00 22.50 15.00 23.00 15.00
C 23.50 15.00 24.00 15.00 24.00 15.00
C 24.42 14.79 24.72 13.14 25.00 13.00
C 24.74 12.88 24.12 12.26 24.00 12.00
C 24.44 12.89 22.34 13.65 22.00 14.00 Z"/>
</g>
<g fill="#5643D5" fill-opacity="0.05" stroke="None">
<path d="
M 18.00 19.00 
C 16.69 18.54 16.40 16.63 17.00 16.00
C 17.00 16.00 17.05 15.50 17.00 15.00
C 16.88 14.74 16.25 14.25 16.00 14.00
C 15.69 13.79 15.26 13.12 15.00 13.00
C 15.00 13.00 14.50 13.05 14.00 13.00
C 14.73 15.04 15.29 18.34 18.00 19.00 Z"/>
</g>
<g fill="#D5AFFF" fill-opacity="0.65" stroke="None">
<path d="
M 19.00 14.00 
C 19.16 13.77 20.84 14.23 21.00 14.00
C 21.00 14.00 20.80 13.40 21.00 13.00
C 19.96 13.42 19.81 13.46 19.00 14.00 Z"/>
</g>
<g fill="#4042FF" fill-opacity="0.06" stroke="None">
<path d="
M 24.00 15.00 
C 24.50 15.00 25.00 15.00 25.00 15.00
C 25.68 13.98 25.57 14.33 26.00 13.00
C 26.00 13.00 25.40 12.80 25.00 13.00
C 24.72 13.14 24.42 14.79 24.00 15.00 Z"/>
</g>
<g fill="#5950FF" fill-opacity="0.89" stroke="None">
<path d="
M 17.00 15.00 
C 16.97 14.65 16.31 14.21 16.00 14.00
C 16.25 14.25 16.88 14.74 17.00 15.00 Z"/>
</g>
<g fill="#5851FF" fill-opacity="0.29" stroke="None">
<path d="
M 19.00 15.00 
C 18.77 14.66 19.00 14.00 19.00 14.00
C 19.00 14.00 18.40 14.20 18.00 14.00
C 17.91 14.09 18.65 14.91 19.00 15.00 Z"/>
</g>
<g fill="#624DFF" fill-opacity="0.05" stroke="None">
<path d="
M 19.00 15.00 
C 19.47 15.12 20.50 15.00 21.00 15.00
C 20.75 14.75 21.00 14.00 21.00 14.00
C 20.84 14.23 19.16 13.77 19.00 14.00
C 19.00 14.00 18.77 14.66 19.00 15.00 Z"/>
</g>
<g fill="#5B50FF" fill-opacity="0.30" stroke="None">
<path d="
M 21.00 15.00 
C 21.00 15.00 21.50 15.00 22.00 15.00
C 22.00 15.00 22.25 14.25 22.00 14.00
C 22.00 14.00 21.25 13.75 21.00 14.00
C 21.00 14.00 20.75 14.75 21.00 15.00 Z"/>
</g>
<g fill="#000000" fill-opacity="0.00" stroke="None">
<path d="
M 17.00 16.00 
C 16.40 16.63 16.69 18.54 18.00 19.00
C 18.93 19.23 21.07 19.22 22.00 19.00
C 22.43 18.86 24.42 16.43 25.00 16.00
C 25.00 16.00 25.25 15.25 25.00 15.00
C 25.00 15.00 24.50 15.00 24.00 15.00
C 24.00 15.00 23.50 15.00 23.00 15.00
C 21.80 17.27 19.05 17.73 17.00 16.00 Z"/>
</g>
<g fill="#6D46FF" fill-opacity="0.05" stroke="None">
<path d="
M 22.00 19.00 
C 23.25 18.70 23.79 17.44 25.00 17.00
C 25.00 17.00 25.00 16.50 25.00 16.00
C 24.42 16.43 22.43 18.86 22.00 19.00 Z"/>
</g>
<g fill="#5554FF" fill-opacity="0.02" stroke="None">
<path d="
M 14.00 18.00 
C 13.81 17.68 13.24 17.26 13.00 17.00
C 13.20 17.31 13.80 17.73 14.00 18.00 Z"/>
</g>
<g fill="#6632FF" fill-opacity="0.02" stroke="None">
<path d="
M 26.00 18.00 
C 26.20 17.73 26.85 17.34 27.00 17.00
C 27.00 17.00 26.50 17.00 26.00 17.00
C 26.00 17.00 26.19 17.59 26.00 18.00 Z"/>
</g>
<g fill="#AF2CFF" fill-opacity="0.44" stroke="None">
<path d="
M 16.00 32.00 
C 16.34 32.00 18.82 32.23 19.00 32.00
C 19.14 31.54 19.00 30.50 19.00 30.00
C 18.72 29.69 14.48 29.84 14.00 30.00
C 13.88 30.00 16.03 31.88 16.00 32.00 Z"/>
</g>
<g fill="#AF2CFF" fill-opacity="0.44" stroke="None">
<path d="
M 21.00 32.00 
C 21.08 32.16 23.73 32.00 24.00 32.00
C 23.61 30.66 26.18 31.19 26.00 30.00
C 25.52 29.84 21.28 29.69 21.00 30.00
C 21.00 30.50 20.86 31.54 21.00 32.00 Z"/>
</g>
<g fill="#B82AFF" fill-opacity="0.17" stroke="None">
<path d="
M 15.00 33.00 
C 14.81 32.91 15.00 32.00 15.00 32.00
C 13.64 32.21 14.80 33.15 15.00 33.00 Z"/>
</g>
<g fill="#000000" fill-opacity="0.00" stroke="None">
<path d="
M 15.00 33.00 
C 16.01 33.36 18.64 33.15 19.00 32.00
C 18.82 32.23 16.34 32.00 16.00 32.00
C 16.00 32.00 15.25 31.75 15.00 32.00
C 15.00 32.00 14.81 32.91 15.00 33.00 Z"/>
</g>
<g fill="#000000" fill-opacity="0.00" stroke="None">
<path d="
M 25.00 33.00 
C 24.76 32.81 25.00 32.00 25.00 32.00
C 25.00 32.00 24.50 32.00 24.00 32.00
C 23.73 32.00 21.08 32.16 21.00 32.00
C 21.38 33.23 23.97 33.47 25.00 33.00 Z"/>
</g>
<g fill="#B727FF" fill-opacity="0.18" stroke="None">
<path d="
M 25.00 33.00 
C 25.61 32.78 26.18 32.18 25.00 32.00
C 25.00 32.00 24.76 32.81 25.00 33.00 Z"/>
</g>
<g fill="#DB22FF" fill-opacity="0.05" stroke="None">
<path d="
M 14.00 35.00 
C 14.33 35.15 11.90 32.67 12.00 33.00
C 12.15 33.93 13.14 34.72 14.00 35.00 Z"/>
</g>
<g fill="#C226FF" fill-opacity="0.26" stroke="None">
<path d="
M 25.00 35.00 
C 25.00 35.00 25.57 35.17 26.00 35.00
C 27.14 33.52 23.91 35.15 25.00 35.00 Z"/>
</g>
</svg>