<svg width="24" height="24" viewBox="0 0 24 24" fill="none" xmlns="http://www.w3.org/2000/svg">
  <defs>
    <linearGradient id="tribeGradient" x1="2" y1="2" x2="22" y2="22">
      <stop offset="0%" stop-color="#AD6AFF" />
      <stop offset="100%" stop-color="#6D21FF" />
    </linearGradient>
  </defs>
  <path fill-rule="evenodd" clip-rule="evenodd" d="M8.5 5.5C6.567 5.5 5 7.067 5 9C5 10.933 6.567 12.5 8.5 12.5C9.35498 12.5 10.1334 12.1827 10.7322 11.6599C10.9138 11.5015 11.1844 11.5175 11.3459 11.6956C11.9407 12.3597 12.7782 12.8 13.7188 12.8C15.5297 12.8 17 11.3297 17 9.51875C17 7.7078 15.5297 6.2375 13.7188 6.2375C12.9453 6.2375 12.2369 6.5073 11.6731 6.96045C11.5016 7.09945 11.2474 7.09342 11.0835 6.94656C10.3714 6.31519 9.4743 5.93011 8.5 5.93011C8.5 5.5 8.5 5.5 8.5 5.5ZM14.5 16.5C14.5 15.1193 13.3807 14 12 14C10.6193 14 9.5 15.1193 9.5 16.5V18.5C9.5 18.5 10.75 19.5 12 19.5C13.25 19.5 14.5 18.5 14.5 18.5V16.5ZM7.5 16C7.5 17.6569 7 19 5 19C3 19 2.5 17.6569 2.5 16C2.5 14.3431 3.84315 13 5.5 13C7.15685 13 7.5 14.3431 7.5 16ZM18.5 13C16.8431 13 16.5 14.3431 16.5 16C16.5 17.6569 17 19 19 19C21 19 21.5 17.6569 21.5 16C21.5 14.3431 20.1569 13 18.5 13Z" fill="url(#tribeGradient)"/>
</svg>