<?xml version="1.0" encoding="UTF-8"?>
<svg version="1.1" xmlns="http://www.w3.org/2000/svg" width="80" height="80">
<path d="M0 0 C3.97108701 2.36575396 5.85325363 4.51726419 7 9 C7.44864547 14.02482927 7.13678981 16.99788887 4 21 C-0.43243243 25 -0.43243243 25 -3 25 C-3.103125 25.825 -3.20625 26.65 -3.3125 27.5 C-3.83433717 30.1566256 -4.40277796 32.56897418 -5.25 35.125 C-5.46140625 35.76695313 -5.6728125 36.40890625 -5.890625 37.0703125 C-9.33812743 43.06702447 -17.42245289 46.32379206 -23.2109375 49.65551758 C-24.99967284 50.68731129 -26.78112991 51.7309447 -28.5625 52.77539062 C-29.696875 53.43087891 -30.83125 54.08636719 -32 54.76171875 C-33.03125 55.35944092 -34.0625 55.95716309 -35.125 56.57299805 C-39.8890776 58.93764084 -39.8890776 58.93764084 -43 59 C-47.74731421 55.33258916 -50.36075828 49.73715055 -53.3125 44.625 C-53.87517578 43.69171875 -54.43785156 42.7584375 -55.01757812 41.796875 C-59.03375815 34.85581478 -59.03375815 34.85581478 -58.85546875 30.3359375 C-58.57316406 29.56507812 -58.29085937 28.79421875 -58 28 C-57.34 28 -56.68 28 -56 28 C-56.4021875 26.9171875 -56.4021875 26.9171875 -56.8125 25.8125 C-57 23 -57 23 -54.90527344 20.57348633 C-50.41905401 16.59960069 -45.32821156 13.75625977 -40.15429688 10.78686523 C-38.25738912 9.6917658 -36.37921461 8.56848015 -34.5 7.44335938 C-27.83167499 3.54541049 -22.91266548 1.20222097 -15 2 C-14.01 1.484375 -13.02 0.96875 -12 0.4375 C-7.78966353 -1.57995289 -4.44952948 -1.20679121 0 0 Z M-10 3 C-10.33 3.66 -10.66 4.32 -11 5 C-6.05 6.98 -6.05 6.98 -1 9 C-1.33 12.96 -1.66 16.92 -2 21 C0.54030191 18.96775847 2.64036214 17.28331207 3.54296875 14.0625 C3.84186215 9.79721045 3.29799554 8.34887282 0.4375 5 C-3.43205555 2.74862223 -5.60058672 2.56005867 -10 3 Z M-27.90234375 8.078125 C-29.03994141 8.74457031 -30.17753906 9.41101563 -31.34960938 10.09765625 C-32.54573184 10.81483918 -33.74169398 11.53228957 -34.9375 12.25 C-36.12889185 12.95295195 -37.32094309 13.65478763 -38.51367188 14.35546875 C-43.3593909 17.20863648 -48.1788184 20.10562761 -53 23 C-51.19507839 28.01707022 -48.62477112 32.59132524 -46.0625 37.25 C-45.61970703 38.07757813 -45.17691406 38.90515625 -44.72070312 39.7578125 C-44.28822266 40.54414062 -43.85574219 41.33046875 -43.41015625 42.140625 C-43.01965088 42.85766602 -42.62914551 43.57470703 -42.22680664 44.31347656 C-41.01971645 46.31629516 -41.01971645 46.31629516 -38 47 C-35.54313138 45.98708808 -35.54313138 45.98708808 -32.921875 44.39453125 C-31.42720703 43.53698242 -31.42720703 43.53698242 -29.90234375 42.66210938 C-28.86207031 42.05173828 -27.82179688 41.44136719 -26.75 40.8125 C-25.21279297 39.92594727 -25.21279297 39.92594727 -23.64453125 39.02148438 C-21.65163016 37.87114185 -19.6627054 36.71387736 -17.67822266 35.54907227 C-15.43653101 34.25248763 -13.17256424 33.03576624 -10.8828125 31.828125 C-7.06436674 29.40667159 -6.62218791 27.76763956 -5.48828125 23.59375 C-4.64017127 19.0885898 -4.24792679 14.57382185 -4 10 C-7.82320557 8.57741188 -10.91281305 7.75957724 -15 8 C-15.33 9.32 -15.66 10.64 -16 12 C-15.175 12.37125 -14.35 12.7425 -13.5 13.125 C-12.675 13.74375 -11.85 14.3625 -11 15 C-10.5625 18.0625 -10.5625 18.0625 -11 21 C-13 23 -13 23 -16 23.25 C-19 23 -19 23 -21 21 C-21.25 18 -21.25 18 -21 15 C-20.34 14.34 -19.68 13.68 -19 13 C-18.59952556 10.67724823 -18.2602896 8.34260643 -18 6 C-22.11221663 4.25441605 -24.24061261 5.90698741 -27.90234375 8.078125 Z M-55 31 C-54.33753194 34.28267757 -53.12370941 36.84714174 -51.49609375 39.765625 C-51.00302734 40.65507813 -50.50996094 41.54453125 -50.00195312 42.4609375 C-49.48568359 43.38132812 -48.96941406 44.30171875 -48.4375 45.25 C-47.91736328 46.18585937 -47.39722656 47.12171875 -46.86132812 48.0859375 C-45.57833944 50.39296302 -44.29110654 52.69751081 -43 55 C-39.65322109 54.44858728 -37.08745498 53.70346831 -34.1796875 51.9609375 C-33.48423828 51.5484375 -32.78878906 51.1359375 -32.07226562 50.7109375 C-31.34716797 50.27007812 -30.62207031 49.82921875 -29.875 49.375 C-29.12669922 48.92640625 -28.37839844 48.4778125 -27.60742188 48.015625 C-25.39909408 46.68645092 -23.19837937 45.345551 -21 44 C-20.3905957 43.62907227 -19.78119141 43.25814453 -19.15332031 42.87597656 C-13.24299901 39.7686589 -13.24299901 39.7686589 -9 35 C-13.11689016 36.24633591 -16.54671342 37.75668589 -20.1875 40.0390625 C-21.13367187 40.61914062 -22.07984375 41.19921875 -23.0546875 41.796875 C-25.02173779 43.01780277 -26.98528299 44.24439541 -28.9453125 45.4765625 C-29.89148438 46.0540625 -30.83765625 46.6315625 -31.8125 47.2265625 C-32.66457031 47.75846191 -33.51664063 48.29036133 -34.39453125 48.83837891 C-37.44325567 50.19762092 -39.69750946 50.21393871 -43 50 C-43.24492188 49.32582031 -43.48984375 48.65164062 -43.7421875 47.95703125 C-45.27261836 44.35909286 -47.15843308 41.06123937 -49.125 37.6875 C-49.68380859 36.71973633 -49.68380859 36.71973633 -50.25390625 35.73242188 C-51.16632213 34.15324055 -52.08275509 32.57638136 -53 31 C-53.66 31 -54.32 31 -55 31 Z " fill="#6C47FF" transform="translate(66,11)"/>
<path d="M0 0 C0.66 0.33 1.32 0.66 2 1 C2 1.99 2 2.98 2 4 C-0.43442921 5.71476218 -2.80072379 7.21480731 -5.375 8.6875 C-6.07367188 9.10322266 -6.77234375 9.51894531 -7.4921875 9.94726562 C-12.70539563 13 -12.70539563 13 -15 13 C-15.33 11.68 -15.66 10.36 -16 9 C-13.38029207 7.46935061 -10.75498357 5.95030252 -8.125 4.4375 C-7.37863281 3.99986328 -6.63226563 3.56222656 -5.86328125 3.11132812 C-5.14785156 2.70205078 -4.43242187 2.29277344 -3.6953125 1.87109375 C-3.03547363 1.48880615 -2.37563477 1.10651855 -1.69580078 0.71264648 C-1.13618652 0.47747314 -0.57657227 0.2422998 0 0 Z " fill="#634CFF" transform="translate(36,28)"/>
<path d="M0 0 C0 0.99 0 1.98 0 3 C-2.24179377 4.36965208 -4.49172338 5.72052808 -6.75 7.0625 C-7.38421875 7.45244141 -8.0184375 7.84238281 -8.671875 8.24414062 C-13.50498766 11.08862881 -13.50498766 11.08862881 -16.21582031 10.60327148 C-16.80459961 10.40419189 -17.39337891 10.2051123 -18 10 C-16.61375742 5.84127225 -13.76037998 4.78174929 -10.125 2.75 C-9.48691406 2.37359375 -8.84882812 1.9971875 -8.19140625 1.609375 C-3.37568774 -1.12522925 -3.37568774 -1.12522925 0 0 Z " fill="#7A43FF" transform="translate(44,39)"/>
<path d="M0 0 C0.66 0.33 1.32 0.66 2 1 C2 1.99 2 2.98 2 4 C-3.28 6.97 -8.56 9.94 -14 13 C-14.66 11.68 -15.32 10.36 -16 9 C-13.38029207 7.46935061 -10.75498357 5.95030252 -8.125 4.4375 C-7.37863281 3.99986328 -6.63226563 3.56222656 -5.86328125 3.11132812 C-5.14785156 2.70205078 -4.43242188 2.29277344 -3.6953125 1.87109375 C-3.03547363 1.48880615 -2.37563477 1.10651855 -1.69580078 0.71264648 C-1.13618652 0.47747314 -0.57657227 0.2422998 0 0 Z " fill="#6D47FF" transform="translate(39,33)"/>
<path d="M0 0 C1.65 0.33 3.3 0.66 5 1 C4.67 2.65 4.34 4.3 4 6 C2.35 5.67 0.7 5.34 -1 5 C-0.67 3.35 -0.34 1.7 0 0 Z " fill="#9FADFF" transform="translate(48,26)"/>
</svg>
