<svg width="24" height="24" viewBox="0 0 24 24" fill="none" xmlns="http://www.w3.org/2000/svg">
  <defs>
    <linearGradient id="discoverGradient" x1="2" y1="2" x2="22" y2="22">
      <stop offset="0%" stop-color="#FF6AE4" />
      <stop offset="100%" stop-color="#B221FF" />
    </linearGradient>
  </defs>
  <path fill-rule="evenodd" clip-rule="evenodd" d="M12 2C6.47715 2 2 6.47715 2 12C2 17.5228 6.47715 22 12 22C17.5228 22 22 17.5228 22 12C22 6.47715 17.5228 2 12 2ZM16.5 7.5L8.5 10.5L7.5 16.5L15.5 13.5L16.5 7.5ZM12 13C11.4477 13 11 12.5523 11 12C11 11.4477 11.4477 11 12 11C12.5523 11 13 11.4477 13 12C13 12.5523 12.5523 13 12 13Z" fill="url(#discoverGradient)"/>
</svg>